<svg width="771" height="139" viewBox="0 0 771 139" fill="none" xmlns="http://www.w3.org/2000/svg">
<path fill-rule="evenodd" clip-rule="evenodd" d="M477.446 12.46V0.940552H491.284V12.46H477.446ZM477.446 73.9999V16.0163H491.284V73.9999H477.446ZM24.0908 74.6184C21.0242 74.6184 18.2281 74.0257 15.7025 72.8403C13.177 71.6548 11.1669 69.9024 9.67225 67.5831C8.20333 65.238 7.46887 62.3646 7.46887 58.9628V41.9157H20.9211V58.1511C20.9211 59.3365 21.153 60.29 21.6169 61.0116C22.1065 61.7332 22.8796 62.094 23.9362 62.094C25.9721 62.094 26.99 60.8441 26.99 58.3444V5.9658H40.7128V56.9914C40.7128 60.5993 40.0041 63.7304 38.5868 66.3848C37.1694 69.0133 35.2108 71.0492 32.7111 72.4924C30.2113 73.9097 27.3379 74.6184 24.0908 74.6184ZM56.9096 74.6184C53.8171 74.6184 51.4462 73.9742 49.7969 72.6856C48.1734 71.3971 47.0653 69.6061 46.4725 67.3125C45.8798 64.9931 45.5835 62.2872 45.5835 59.1948V16.0163H59.4995V57.5712C59.4995 59.8906 59.6799 61.5141 60.0407 62.4419C60.4015 63.3438 61.2519 63.7948 62.592 63.7948C64.0351 63.7948 64.9371 63.1506 65.2979 61.862C65.6844 60.5735 65.8777 58.9113 65.8777 56.8754V16.0163H79.6778V73.9999H65.8391V67.815C64.9629 70.0313 63.9063 71.7192 62.6693 72.8789C61.4581 74.0386 59.5382 74.6184 56.9096 74.6184ZM83.9686 57.2233C83.9686 68.8201 89.6897 74.6184 101.132 74.6184C106.544 74.6184 110.796 73.1882 113.888 70.3276C117.006 67.4671 118.566 63.3052 118.566 57.8418C118.566 53.4351 117.651 49.9045 115.821 47.2502C114.017 44.5958 111.775 42.3022 109.095 40.3694L100.513 34.1072C98.864 32.9217 98.0393 31.2853 98.0393 29.1979C98.0393 27.1363 99.0186 26.1055 100.977 26.1055C102.137 26.1055 102.91 26.6466 103.297 27.729C103.709 28.8114 103.915 29.9324 103.915 31.092V33.2954H118.218V32.2131C118.218 21.0029 112.6 15.3978 101.364 15.3978C98.3228 15.3978 95.488 15.9261 92.8594 16.9827C90.2566 18.0393 88.1563 19.6499 86.5586 21.8147C84.9866 23.9794 84.2006 26.7239 84.2006 30.0483C84.2006 33.6304 84.8062 36.4265 86.0174 38.4366C87.2286 40.4467 88.9939 42.3538 91.3132 44.1577L98.6965 49.8401C100.217 50.9998 101.505 52.211 102.562 53.4737C103.619 54.7107 104.147 56.592 104.147 59.1175C104.147 62.1326 103.142 63.6402 101.132 63.6402C99.9979 63.6402 99.1732 63.2665 98.6578 62.5192C98.1424 61.7718 97.8847 60.741 97.8847 59.4267V52.6233H83.9686V57.2233ZM134.724 74.6184C130.987 74.6184 128.461 73.8324 127.147 72.2604C125.859 70.6627 125.214 68.2273 125.214 64.9545V28.8114H121.31V18.2583H125.214V5.9658H138.667V18.2583H142.571V28.8114H138.667V61.7074C138.667 62.6609 138.821 63.3309 139.13 63.7175C139.44 64.1041 140.032 64.2973 140.909 64.2973C141.527 64.2973 142.081 64.2458 142.571 64.1427V73.5747C142.262 73.6778 141.295 73.8711 139.672 74.1546C138.048 74.4638 136.399 74.6184 134.724 74.6184ZM147.248 5.9658V73.9999H160.778V41.0652L168.2 73.9999H182.309L173.109 37.1223L180.724 5.9658H167.04L160.7 33.2181V5.9658H147.248ZM200.67 74.6184C196.547 74.6184 193.261 73.8453 190.813 72.2991C188.365 70.7529 186.613 68.5237 185.556 65.6116C184.499 62.6996 183.971 59.1948 183.971 55.0973V31.7878C183.971 26.4018 185.517 22.3301 188.61 19.5726C191.702 16.7894 195.954 15.3978 201.366 15.3978C212.499 15.3978 218.065 20.8612 218.065 31.7878V36.0013C218.065 41.1039 218.014 44.5314 217.911 46.2838H197.81V57.4939C197.81 58.5247 197.874 59.5427 198.003 60.5477C198.132 61.527 198.415 62.3388 198.854 62.983C199.317 63.6273 200.052 63.9494 201.057 63.9494C202.5 63.9494 203.402 63.3309 203.763 62.094C204.124 60.8312 204.304 59.1948 204.304 57.1847V51.6183H218.065V54.904C218.065 59.2334 217.524 62.8671 216.442 65.8049C215.385 68.717 213.581 70.9204 211.03 72.4151C208.505 73.884 205.051 74.6184 200.67 74.6184ZM197.733 39.403H204.304V31.5946C204.304 29.5072 204.046 28.0125 203.531 27.1105C203.015 26.1828 202.242 25.7189 201.212 25.7189C200.103 25.7189 199.24 26.157 198.622 27.0332C198.029 27.9094 197.733 29.4298 197.733 31.5946V39.403ZM229.469 72.2991C231.917 73.8453 235.203 74.6184 239.326 74.6184C243.707 74.6184 247.16 73.884 249.686 72.4151C252.237 70.9204 254.041 68.717 255.098 65.8049C256.18 62.8671 256.721 59.2334 256.721 54.904V51.6183H242.96V57.1847C242.96 59.1948 242.779 60.8312 242.419 62.094C242.058 63.3309 241.156 63.9494 239.713 63.9494C238.708 63.9494 237.973 63.6273 237.509 62.983C237.071 62.3388 236.788 61.527 236.659 60.5477C236.53 59.5427 236.466 58.5247 236.466 57.4939V46.2838H256.567C256.67 44.5314 256.721 41.1039 256.721 36.0013V31.7878C256.721 20.8612 251.155 15.3978 240.022 15.3978C234.61 15.3978 230.358 16.7894 227.266 19.5726C224.173 22.3301 222.627 26.4018 222.627 31.7878V55.0973C222.627 59.1948 223.155 62.6996 224.212 65.6116C225.268 68.5237 227.021 70.7529 229.469 72.2991ZM242.96 39.403H236.388V31.5946C236.388 29.4298 236.685 27.9094 237.277 27.0332C237.896 26.157 238.759 25.7189 239.867 25.7189C240.898 25.7189 241.671 26.1828 242.187 27.1105C242.702 28.0125 242.96 29.5072 242.96 31.5946V39.403ZM261.746 16.0163H275.817V22.2012C276.668 20.0623 277.84 18.4001 279.335 17.2146C280.855 16.0034 283.02 15.3978 285.829 15.3978C289.617 15.3978 292.285 16.7765 293.831 19.534C295.403 22.2914 296.189 25.8993 296.189 30.3576V58.8855C296.189 61.8491 295.764 64.5293 294.913 66.9259C294.088 69.2968 292.774 71.1781 290.97 72.5697C289.192 73.9355 286.86 74.6184 283.974 74.6184C280.211 74.6184 277.492 72.3506 275.817 67.815V81.0651C300.465 81.1464 325.475 81.2371 350.192 81.3268C420.042 81.5801 487.548 81.825 537.903 81.825C541.652 77.4539 540.807 58.3776 539.914 38.2436C539.46 27.9997 538.994 17.4819 539.115 8.488C539.161 2.11603 546.247 2.71817 553.337 3.3206C556.932 3.62607 560.528 3.93161 563.207 3.328C564.923 5.04534 566.505 6.89793 568.087 8.75083C571.258 12.4653 574.431 16.181 578.691 18.811C580.197 37.594 576.968 73.221 574.29 76.665C568.6 76.379 557.47 71.859 555.106 64.621C553.776 59.413 554.156 51.7071 554.55 43.7245C555.1 32.5845 555.676 20.9055 551.668 14.724C549.884 26.2518 549.679 39.2584 549.474 52.225C549.242 66.8907 549.012 81.5052 546.499 93.871C543.909 93.3382 513.99 93.2277 477.933 93.0944C441.233 92.9588 398.174 92.7997 371.1 92.148C368.145 92.3382 365.405 92.2603 362.662 92.1824C360.329 92.116 357.994 92.0497 355.522 92.148C253.148 96.52 46.489 92.796 10.782 90.429C10.3963 90.3991 9.73298 90.4987 8.92244 90.6204C5.82403 91.0857 0.574776 91.8739 0.463013 86.988C0.841922 80.1833 7.29718 80.9983 12.0321 81.596C13.6327 81.7981 15.0368 81.9753 15.943 81.825C39.44 80.5416 145.051 80.6511 261.746 81.0197V16.0163ZM279.103 63.8335C280.546 63.8335 281.409 63.1119 281.693 61.6688C282.002 60.2256 282.157 58.4474 282.157 56.3343V33.682C282.157 31.543 282.002 29.7649 281.693 28.3475C281.409 26.9043 280.546 26.1828 279.103 26.1828C277.608 26.1828 276.68 26.9172 276.32 28.3861C275.985 29.8293 275.817 31.5946 275.817 33.682V56.3343C275.817 58.4217 275.985 60.1998 276.32 61.6688C276.68 63.1119 277.608 63.8335 279.103 63.8335ZM307.554 19.0314V73.9999H321.16V19.0314H329.239V5.9658H299.474V19.0314H307.554ZM332.796 73.9999V16.0163H346.866V22.4718C347.536 20.2298 348.722 18.4774 350.423 17.2146C352.124 15.9519 354.263 15.3205 356.84 15.3205V26.8786C355.706 26.8786 354.353 27.0074 352.781 27.2651C351.209 27.4971 349.83 27.8321 348.645 28.2702C347.459 28.6825 346.866 29.1464 346.866 29.6618V73.9999H332.796ZM364.3 72.6856C365.95 73.9742 368.32 74.6184 371.413 74.6184C374.041 74.6184 375.961 74.0386 377.173 72.8789C378.41 71.7192 379.466 70.0313 380.342 67.815V73.9999H394.181V16.0163H380.381V56.8754C380.381 58.9113 380.188 60.5735 379.801 61.862C379.44 63.1506 378.538 63.7948 377.095 63.7948C375.755 63.7948 374.905 63.3438 374.544 62.4419C374.183 61.5141 374.003 59.8906 374.003 57.5712V16.0163H360.087V59.1948C360.087 62.2872 360.383 64.9931 360.976 67.3125C361.569 69.6061 362.677 71.3971 364.3 72.6856ZM417.181 74.6184C410.687 74.6184 406.074 72.9562 403.342 69.6318C400.637 66.3074 399.284 61.4239 399.284 54.9813V37.1223C399.284 32.2775 399.799 28.2444 400.83 25.0231C401.861 21.8018 403.665 19.3922 406.242 17.7945C408.819 16.1967 412.401 15.3978 416.988 15.3978C420.184 15.3978 423.044 15.9648 425.57 17.0987C428.121 18.2326 430.131 19.8948 431.6 22.0853C433.069 24.2757 433.803 26.9559 433.803 30.1257V38.9778H419.694V30.8601C419.694 29.52 419.501 28.399 419.114 27.4971C418.727 26.5693 417.89 26.1055 416.601 26.1055C414.334 26.1055 413.2 27.7161 413.2 30.9374V59.0402C413.2 60.2256 413.457 61.3208 413.973 62.3259C414.488 63.3052 415.339 63.7948 416.524 63.7948C417.735 63.7948 418.573 63.3181 419.037 62.3646C419.526 61.3853 419.771 60.2514 419.771 58.9628V49.2216H433.803V59.3494C433.803 62.5449 433.082 65.2895 431.639 67.5831C430.221 69.8509 428.263 71.5904 425.763 72.8016C423.263 74.0128 420.403 74.6184 417.181 74.6184ZM438.635 5.9658V73.9999H452.319V46.6703L460.94 73.9999H475.667L464.612 41.2199L473.309 16.0163H458.968L452.319 36.0013V5.9658H438.635ZM496.773 16.0163V73.9999H510.612V33.2181C510.612 32.1357 510.677 31.0534 510.806 29.971C510.934 28.8629 511.244 27.948 511.733 27.2265C512.249 26.4791 513.035 26.1055 514.091 26.1055C515.225 26.1055 516.024 26.5951 516.488 27.5744C516.952 28.5279 517.184 29.5716 517.184 30.7055V73.9999H530.829V29.2752C530.829 24.9715 529.914 21.5827 528.085 19.1088C526.281 16.6348 523.369 15.3978 519.348 15.3978C516.849 15.3978 514.89 16.1838 513.473 17.7558C512.081 19.302 511.128 21.1833 510.612 23.3995V16.0163H496.773ZM534.609 134.149C536.9 131.746 538.214 128.263 537.827 123.558C537.825 123.486 537.827 123.422 537.83 123.358C537.832 123.284 537.835 123.209 537.831 123.12C537.403 114.802 527.794 108.852 520.623 109.353C513.913 109.849 506.667 117.181 506.88 124.535C505.653 136.483 523.425 141.974 532.608 135.816C532.759 135.762 532.909 135.709 533.06 135.657C533.501 135.502 533.943 135.347 534.396 135.162C534.434 134.922 534.48 134.721 534.527 134.522C534.555 134.4 534.583 134.278 534.609 134.149ZM116.975 110.997C118.197 110.41 119.179 109.94 119.179 109.911C133.734 107.44 142.981 124.68 132.941 135.72C114.804 145.614 100.611 123.68 112.295 113.353C112.514 113.135 115.045 111.922 116.975 110.997ZM65.838 109.911C69.639 109.198 79.173 112.353 79.607 115.74C79.7801 116.976 80.8439 117.316 81.8378 117.634C82.5091 117.848 83.1484 118.053 83.46 118.516C85.127 124.824 82.333 131.923 77.888 137.443C69.498 137.8 61.47 137.8 57.242 134.3C55.736 128.912 55.12 125.254 55.52 121.957C56.164 117.585 60.963 110.773 65.838 109.911ZM452.355 124.839C451.928 117.383 459.315 109.856 466.12 109.353C473.29 108.852 482.9 114.802 483.327 123.12C483.483 126.696 482.764 127.948 481.905 129.444C481.19 130.689 480.378 132.102 479.892 135.162C463.684 141.757 453.6 135.305 452.355 124.839ZM724.957 124.839C724.53 117.383 731.917 109.856 738.722 109.353C745.892 108.852 755.502 114.802 755.929 123.12C756.085 126.696 755.366 127.948 754.507 129.445C753.792 130.689 752.981 132.103 752.494 135.162C736.286 141.757 725.609 135.305 724.957 124.839ZM769.426 113.364C769.823 113.375 770.234 113.386 770.661 113.4C770.661 111.896 768.225 76.769 765.503 70.27C757.261 62.857 713.799 57.239 700.968 56.879C694.802 52.5315 692.556 44.2649 690.309 35.998C689.369 32.5401 688.43 29.0822 687.203 25.911C663.565 23.5777 649.46 24.1814 633.425 24.8679C622.37 25.3411 610.397 25.8536 593.751 25.47C592.659 33.5174 593.298 49.7931 593.906 65.2748C594.533 81.2514 595.127 96.3823 593.751 100.752C606.678 103.637 609.686 102.804 614.073 101.59C617.862 100.541 622.679 99.2079 635.802 99.738C635.951 98.3878 634.616 96.8351 633.12 95.0952C631.311 92.991 629.266 90.6132 629.327 87.989C629.434 83.3412 629.473 78.0671 629.514 72.6024C629.669 51.7449 629.845 28.1091 633.869 25.911C636.891 25.7152 646.933 34.194 648.994 35.9349C649.185 36.0962 649.308 36.1997 649.35 36.233C652.005 42.4649 651.582 57.8049 651.193 71.9041C651.018 78.2504 650.849 84.3453 650.972 89.245C651.048 92.295 649.871 94.8344 649.012 96.688C648.321 98.1787 647.835 99.2258 648.373 99.738C657.867 101.283 669.561 100.721 680.505 100.196C682.779 100.087 685.02 99.9789 687.203 99.892C692.316 99.4397 693.718 111.281 694.451 117.467C694.612 118.831 694.741 119.919 694.87 120.541C698.641 122.224 701.115 122.282 703.821 122.346C706.416 122.406 709.223 122.472 713.59 123.981C717.152 124.39 717.477 120.713 717.802 117.035C717.906 115.865 718.009 114.694 718.217 113.655C718.563 113.104 718.905 112.557 719.242 112.016C726.801 99.9054 732.458 90.8424 750.15 100.998C750.565 101.252 751.231 101.577 752.021 101.962C754.123 102.986 757.109 104.441 758.618 106.157C759.109 106.746 759.213 107.691 759.316 108.627C759.439 109.746 759.561 110.852 760.341 111.32C763.317 113.197 765.767 113.264 769.426 113.364ZM683.207 36.5L691.854 57.627H658.497L655.409 36.5H683.207ZM640.673 35.4421C641.523 36.5937 642.362 37.7299 644.192 37.955C645.217 44.5196 641.672 76.207 640.853 83.5241C640.813 83.8779 640.78 84.1747 640.754 84.409C635.382 86.383 634.635 80.6011 634.119 76.6127C634.036 75.9682 633.959 75.3705 633.869 74.86C632.219 62.616 633.869 42.11 635.585 32.791C638.557 32.575 639.624 34.0203 640.673 35.4421ZM682.45 118.818C673.15 122.617 654.942 123.909 644.192 120.541V106.774H682.45V118.818ZM588.421 108.156C588.441 108.587 588.459 108.973 588.459 109.324C603.789 111.488 609.205 110.768 614.553 110.056C619.31 109.424 624.012 108.798 635.585 110.215C636.446 117.383 634.655 121.902 632.15 125.701C623.474 127.492 552.902 123.413 546.804 122.483C550.51 111.351 540.484 105.269 535.829 102.471C537.974 99.9404 548.217 99.6818 561.261 99.3524C570.011 99.1314 580.021 98.8786 589.693 97.887C588.181 103.046 588.325 106.11 588.421 108.156Z" fill="white"/>
</svg>
