<svg width="36" height="19" viewBox="0 0 36 19" fill="none" xmlns="http://www.w3.org/2000/svg">
<path d="M34.5128 10.406C33.9851 9.58665 33.2277 9.02938 32.2434 8.73282V8.6804C32.9646 8.31487 33.5271 7.78794 33.9322 7.09826C34.3374 6.40995 34.5392 5.61267 34.5392 4.70642C34.5392 3.95742 34.407 3.28981 34.1438 2.70633C33.8793 2.12286 33.5103 1.63042 33.0356 1.22902C32.5608 0.827624 31.9928 0.522783 31.3328 0.314497C30.6729 0.104832 29.9475 0 29.1553 0H23.5069C22.9263 0 22.6353 0.288289 22.6353 0.863488V13.5344L17.9489 0.706239C17.793 0.235873 17.4672 0 16.9743 0H15.7074C15.2145 0 14.8887 0.235873 14.7314 0.706239L9.06623 16.2118H2.74114V0.863488C2.74114 0.288289 2.45015 0 1.86958 0H1.02586C0.445282 0 0.154297 0.288289 0.154297 0.863488V17.5981C0.154297 18.1733 0.445282 18.4615 1.02586 18.4615H9.32101H10.2176H10.2357C10.6005 18.4615 10.8511 18.3471 10.9862 18.1195C11.0627 18.0188 11.124 17.9001 11.1672 17.7553L12.8031 13.1537H19.8229L21.4853 17.7553C21.644 18.2257 21.9684 18.4615 22.4613 18.4615H23.3593C23.3913 18.4615 23.4219 18.4602 23.4526 18.4574C23.4707 18.4574 23.4874 18.4615 23.5055 18.4615H29.2848C30.1118 18.4615 30.8901 18.3526 31.621 18.1346C32.3506 17.9167 32.9882 17.5856 33.534 17.1415C34.0798 16.6973 34.51 16.1483 34.8274 15.4945C35.1435 14.8407 35.3022 14.0779 35.3022 13.2061C35.305 12.1578 35.0405 11.2267 34.5128 10.406ZM13.4909 11.0074L15.5751 5.15058C15.6628 4.90643 15.7422 4.64021 15.8132 4.3533C15.8828 4.06639 15.9622 3.78224 16.0513 3.50361C16.1209 3.19049 16.21 2.86772 16.3158 2.53667H16.3687C16.4564 2.86772 16.5358 3.19049 16.6068 3.50361C16.6764 3.78224 16.7516 4.06639 16.8309 4.3533C16.9103 4.64159 16.9938 4.90643 17.0815 5.15058L19.1407 11.0074H13.4909V11.0074ZM25.2235 2.24838H29.1024C30.0004 2.24838 30.6896 2.49667 31.1741 2.99324C31.6572 3.48982 31.8995 4.14778 31.8995 4.96712C31.8995 5.78647 31.6531 6.45685 31.1602 6.98101C30.6673 7.50379 29.999 7.76587 29.1539 7.76587H25.2222V2.24838H25.2235ZM31.7811 15.3483C31.2089 15.9235 30.4223 16.2118 29.4185 16.2118H25.2222V9.90942H29.4185C30.4042 9.90942 31.1866 10.2018 31.7672 10.7853C32.3478 11.3688 32.6388 12.1316 32.6388 13.0737C32.6388 14.0144 32.3534 14.7731 31.7811 15.3483Z" fill="#00AA88"/>
</svg>
