<svg width="18" height="13" viewBox="0 0 18 13" fill="none" xmlns="http://www.w3.org/2000/svg">
<path fill-rule="evenodd" clip-rule="evenodd" d="M17.1004 0.09L9.00039 6.7223L0.900391 0.09C1.05525 0.0312575 1.21938 0.000774542 1.38501 0H16.6158C16.7814 0.000774542 16.9455 0.0312575 17.1004 0.09ZM9.33923 8.21078C9.37307 8.19249 9.40547 8.17166 9.43615 8.14847L18 1.16309V1.38462V11.0769C18 11.4442 17.8541 11.7963 17.5945 12.056C17.3348 12.3157 16.9826 12.4615 16.6154 12.4615H1.38462C1.01739 12.4615 0.66521 12.3157 0.405544 12.056C0.145879 11.7963 0 11.4442 0 11.0769V1.38462V1.16309L8.56385 8.14847C8.59453 8.17166 8.62694 8.19249 8.66077 8.21078L8.73692 8.25232C8.82015 8.28779 8.90953 8.30661 9 8.3077C9.09047 8.30661 9.17985 8.28779 9.26308 8.25232L9.33923 8.21078Z" fill="#333333"/>
</svg>
