<svg width="523" height="241" viewBox="0 0 523 241" fill="none" xmlns="http://www.w3.org/2000/svg">
<path d="M170.279 211.157L166.73 239.972H149.568L158.997 162.797H182.409C187.141 162.797 191.166 163.309 194.486 164.333C197.841 165.322 200.577 166.699 202.696 168.465C204.815 170.23 206.351 172.331 207.304 174.768C208.293 177.169 208.787 179.782 208.787 182.607C208.787 185.468 208.399 188.169 207.622 190.711C206.881 193.254 205.786 195.602 204.338 197.756C202.89 199.875 201.107 201.764 198.988 203.424C196.905 205.048 194.521 206.39 191.837 207.45C192.897 208.05 193.886 208.774 194.804 209.621C195.757 210.469 196.499 211.528 197.028 212.799L208.258 239.972H192.685C191.237 239.972 190.019 239.69 189.03 239.125C188.041 238.56 187.353 237.748 186.964 236.688L178.595 213.859C178.207 212.87 177.677 212.181 177.006 211.793C176.371 211.369 175.417 211.157 174.146 211.157H170.279ZM174.676 175.668L171.762 199.239H178.066C180.537 199.239 182.639 198.869 184.369 198.127C186.099 197.35 187.494 196.326 188.553 195.055C189.648 193.784 190.425 192.3 190.884 190.605C191.378 188.91 191.626 187.127 191.626 185.256C191.626 183.808 191.414 182.501 190.99 181.336C190.566 180.135 189.895 179.129 188.977 178.317C188.094 177.469 186.964 176.816 185.587 176.357C184.245 175.898 182.656 175.668 180.82 175.668H174.676Z" fill="white"/>
<path d="M236.623 185.044L232.492 219.897C232.421 220.462 232.368 220.992 232.333 221.486C232.298 221.945 232.28 222.387 232.28 222.811C232.28 224.682 232.598 225.989 233.233 226.73C233.904 227.472 234.893 227.843 236.2 227.843C237.294 227.843 238.442 227.525 239.643 226.889C240.879 226.218 242.061 225.3 243.191 224.135C244.321 222.934 245.363 221.486 246.317 219.791C247.305 218.096 248.118 216.207 248.753 214.124L252.302 185.044H268.722L262.048 239.972H253.679C249.795 239.972 247.853 238.171 247.853 234.57V231.074C245.204 234.393 242.362 236.847 239.325 238.436C236.288 240.025 233.127 240.82 229.843 240.82C227.795 240.82 225.906 240.449 224.176 239.708C222.481 238.966 220.998 237.889 219.726 236.476C218.49 235.029 217.519 233.263 216.813 231.18C216.142 229.061 215.807 226.642 215.807 223.923C215.807 223.287 215.824 222.634 215.86 221.963C215.93 221.292 216.001 220.603 216.071 219.897L220.203 185.044H236.623Z" fill="white"/>
<path d="M304.405 239.972L308.537 205.066C308.607 204.501 308.66 203.989 308.696 203.53C308.731 203.035 308.749 202.576 308.749 202.153C308.749 200.281 308.413 198.992 307.742 198.286C307.107 197.544 306.136 197.174 304.829 197.174C303.628 197.174 302.375 197.544 301.068 198.286C299.762 199.028 298.508 200.069 297.307 201.411C296.142 202.753 295.065 204.395 294.076 206.337C293.088 208.244 292.311 210.363 291.746 212.693L288.726 239.972H272.306L278.874 185.044H287.349C289.044 185.044 290.368 185.45 291.322 186.262C292.275 187.039 292.752 188.328 292.752 190.129V194.525C295.401 190.994 298.296 188.398 301.439 186.739C304.582 185.044 307.83 184.196 311.185 184.196C313.233 184.196 315.105 184.567 316.8 185.309C318.53 186.05 320.013 187.145 321.249 188.593C322.485 190.005 323.456 191.753 324.163 193.837C324.869 195.92 325.222 198.321 325.222 201.04C325.222 201.676 325.187 202.329 325.116 203C325.081 203.671 325.028 204.36 324.957 205.066L320.826 239.972H304.405Z" fill="white"/>
<path d="M362.65 239.972L366.782 205.066C366.852 204.501 366.905 203.989 366.941 203.53C366.976 203.035 366.994 202.576 366.994 202.153C366.994 200.281 366.658 198.992 365.987 198.286C365.352 197.544 364.38 197.174 363.074 197.174C361.873 197.174 360.62 197.544 359.313 198.286C358.007 199.028 356.753 200.069 355.552 201.411C354.387 202.753 353.31 204.395 352.321 206.337C351.332 208.244 350.556 210.363 349.991 212.693L346.971 239.972H330.551L337.119 185.044H345.594C347.289 185.044 348.613 185.45 349.567 186.262C350.52 187.039 350.997 188.328 350.997 190.129V194.525C353.645 190.994 356.541 188.398 359.684 186.739C362.827 185.044 366.075 184.196 369.43 184.196C371.478 184.196 373.35 184.567 375.045 185.309C376.775 186.05 378.258 187.145 379.494 188.593C380.73 190.005 381.701 191.753 382.408 193.837C383.114 195.92 383.467 198.321 383.467 201.04C383.467 201.676 383.432 202.329 383.361 203C383.326 203.671 383.273 204.36 383.202 205.066L379.07 239.972H362.65Z" fill="white"/>
<path d="M437.315 198.551C437.315 201.058 436.821 203.353 435.832 205.437C434.844 207.52 433.113 209.374 430.641 210.998C428.205 212.588 424.903 213.947 420.736 215.077C416.605 216.207 411.396 217.09 405.11 217.725C405.181 221.469 405.993 224.205 407.547 225.936C409.136 227.666 411.467 228.531 414.539 228.531C415.987 228.531 417.24 228.408 418.3 228.16C419.359 227.913 420.277 227.595 421.054 227.207C421.866 226.818 422.59 226.412 423.226 225.989C423.861 225.565 424.462 225.159 425.027 224.77C425.627 224.382 426.245 224.064 426.881 223.817C427.516 223.57 428.24 223.446 429.052 223.446C429.582 223.446 430.094 223.587 430.588 223.87C431.083 224.117 431.524 224.453 431.913 224.876L436.15 229.802C434.208 231.709 432.301 233.369 430.429 234.781C428.593 236.159 426.686 237.306 424.709 238.224C422.767 239.107 420.683 239.76 418.459 240.184C416.269 240.608 413.868 240.82 411.255 240.82C408.006 240.82 405.022 240.273 402.303 239.178C399.584 238.048 397.236 236.476 395.258 234.464C393.316 232.415 391.798 229.961 390.703 227.101C389.644 224.241 389.114 221.063 389.114 217.567C389.114 214.636 389.432 211.775 390.067 208.986C390.738 206.196 391.674 203.583 392.875 201.146C394.111 198.674 395.611 196.414 397.377 194.366C399.143 192.283 401.12 190.5 403.309 189.016C405.534 187.533 407.953 186.386 410.566 185.573C413.215 184.726 416.022 184.302 418.988 184.302C421.919 184.302 424.515 184.726 426.775 185.573C429.07 186.421 430.994 187.533 432.548 188.91C434.102 190.252 435.285 191.771 436.097 193.466C436.909 195.161 437.315 196.856 437.315 198.551ZM418.035 195.373C415.316 195.373 412.932 196.467 410.884 198.657C408.836 200.811 407.3 203.777 406.276 207.555C409.701 207.026 412.473 206.478 414.592 205.913C416.711 205.313 418.353 204.678 419.518 204.007C420.683 203.3 421.46 202.559 421.849 201.782C422.272 200.97 422.484 200.105 422.484 199.186C422.484 198.268 422.131 197.403 421.425 196.591C420.719 195.779 419.589 195.373 418.035 195.373Z" fill="white"/>
<path d="M440.11 239.972L446.784 185.044H455.259C456.954 185.044 458.278 185.45 459.231 186.262C460.185 187.039 460.661 188.328 460.661 190.129V196.379C462.78 192.636 465.075 189.758 467.547 187.745C470.019 185.732 472.579 184.726 475.228 184.726C476.711 184.726 478.176 185.061 479.624 185.732L476.658 200.934C474.857 200.158 473.144 199.769 471.52 199.769C468.801 199.769 466.382 201.005 464.263 203.477C462.18 205.913 460.485 209.851 459.178 215.289L456.212 239.972H440.11Z" fill="white"/>
<path d="M517.338 196.591C516.844 197.227 516.385 197.686 515.961 197.968C515.537 198.251 514.972 198.392 514.266 198.392C513.56 198.392 512.853 198.233 512.147 197.915C511.476 197.597 510.735 197.244 509.922 196.856C509.146 196.432 508.245 196.061 507.221 195.743C506.232 195.426 505.085 195.267 503.778 195.267C501.341 195.267 499.593 195.743 498.534 196.697C497.51 197.615 496.998 198.816 496.998 200.299C496.998 201.252 497.28 202.064 497.845 202.735C498.446 203.406 499.223 204.007 500.176 204.536C501.13 205.066 502.207 205.56 503.407 206.019C504.643 206.443 505.897 206.938 507.168 207.503C508.439 208.032 509.675 208.65 510.876 209.356C512.112 210.063 513.206 210.928 514.16 211.952C515.113 212.976 515.873 214.194 516.438 215.607C517.038 217.019 517.338 218.697 517.338 220.639C517.338 223.393 516.791 226.006 515.696 228.478C514.601 230.915 513.03 233.051 510.982 234.887C508.934 236.688 506.444 238.136 503.513 239.231C500.618 240.29 497.351 240.82 493.714 240.82C491.984 240.82 490.271 240.643 488.576 240.29C486.881 239.937 485.274 239.46 483.756 238.86C482.273 238.26 480.913 237.553 479.677 236.741C478.441 235.894 477.435 234.993 476.658 234.04L480.684 228.001C481.178 227.295 481.743 226.748 482.379 226.359C483.05 225.936 483.862 225.724 484.815 225.724C485.698 225.724 486.457 225.936 487.093 226.359C487.728 226.783 488.417 227.242 489.159 227.737C489.9 228.231 490.783 228.69 491.807 229.114C492.831 229.538 494.173 229.749 495.833 229.749C498.163 229.749 499.894 229.237 501.024 228.213C502.154 227.154 502.719 225.918 502.719 224.505C502.719 223.411 502.418 222.51 501.818 221.804C501.253 221.098 500.494 220.498 499.54 220.003C498.587 219.473 497.51 219.014 496.309 218.626C495.109 218.202 493.873 217.743 492.602 217.249C491.33 216.754 490.094 216.189 488.894 215.554C487.693 214.883 486.616 214.053 485.663 213.064C484.709 212.075 483.932 210.857 483.332 209.409C482.767 207.962 482.485 206.214 482.485 204.165C482.485 201.623 482.944 199.151 483.862 196.75C484.815 194.349 486.21 192.23 488.046 190.394C489.918 188.522 492.231 187.021 494.985 185.891C497.74 184.761 500.953 184.196 504.625 184.196C508.298 184.196 511.564 184.832 514.425 186.103C517.32 187.374 519.704 188.928 521.576 190.764L517.338 196.591Z" fill="white"/>
<path d="M72.4613 148.752H59.1132C57.63 148.752 56.4294 148.416 55.5113 147.745C54.6285 147.039 54.0988 146.121 53.9222 144.991L51.5386 131.113H25.3191L19.5984 144.991C19.21 145.98 18.4508 146.862 17.3208 147.639C16.1908 148.381 14.9372 148.752 13.56 148.752H0L36.8663 71.5762H54.5578L72.4613 148.752ZM30.1392 119.354H49.5258L45.765 97.319C45.4472 95.4828 45.0941 93.6289 44.7057 91.7573C44.3525 89.8504 44.0524 88.1201 43.8052 86.5664C43.5227 87.4139 43.1519 88.385 42.6928 89.4797C42.2338 90.539 41.7747 91.5807 41.3156 92.6048C40.8919 93.6289 40.4681 94.5823 40.0444 95.4651C39.656 96.3479 39.3735 97.0012 39.1969 97.425L30.1392 119.354Z" fill="white"/>
<path d="M113.839 105.37C113.345 106.006 112.886 106.465 112.462 106.747C112.038 107.03 111.473 107.171 110.767 107.171C110.061 107.171 109.354 107.012 108.648 106.695C107.977 106.377 107.236 106.024 106.423 105.635C105.646 105.211 104.746 104.841 103.722 104.523C102.733 104.205 101.586 104.046 100.279 104.046C97.8424 104.046 96.0945 104.523 95.0351 105.476C94.011 106.394 93.499 107.595 93.499 109.078C93.499 110.032 93.7815 110.844 94.3465 111.515C94.9468 112.186 95.7237 112.786 96.6771 113.316C97.6306 113.845 98.7076 114.34 99.9082 114.799C101.144 115.222 102.398 115.717 103.669 116.282C104.94 116.812 106.176 117.43 107.377 118.136C108.613 118.842 109.707 119.707 110.661 120.731C111.614 121.755 112.374 122.974 112.939 124.386C113.539 125.799 113.839 127.476 113.839 129.418C113.839 132.172 113.292 134.786 112.197 137.257C111.102 139.694 109.531 141.83 107.483 143.667C105.435 145.468 102.945 146.915 100.014 148.01C97.1185 149.07 93.8521 149.599 90.2149 149.599C88.4846 149.599 86.772 149.423 85.077 149.07C83.382 148.716 81.7752 148.24 80.2568 147.639C78.7737 147.039 77.4141 146.333 76.1782 145.521C74.9423 144.673 73.9359 143.773 73.159 142.819L77.1846 136.781C77.679 136.075 78.244 135.527 78.8796 135.139C79.5505 134.715 80.3627 134.503 81.3162 134.503C82.199 134.503 82.9582 134.715 83.5938 135.139C84.2295 135.562 84.9181 136.022 85.6596 136.516C86.4012 137.01 87.284 137.469 88.3081 137.893C89.3321 138.317 90.674 138.529 92.3337 138.529C94.6643 138.529 96.3946 138.017 97.5246 136.993C98.6546 135.933 99.2196 134.697 99.2196 133.285C99.2196 132.19 98.9195 131.29 98.3191 130.583C97.7541 129.877 96.9949 129.277 96.0415 128.782C95.0881 128.253 94.011 127.794 92.8104 127.405C91.6098 126.982 90.3738 126.522 89.1026 126.028C87.8313 125.534 86.5954 124.969 85.3948 124.333C84.1941 123.662 83.1171 122.832 82.1637 121.844C81.2102 120.855 80.4334 119.637 79.833 118.189C79.268 116.741 78.9855 114.993 78.9855 112.945C78.9855 110.402 79.4446 107.93 80.3627 105.529C81.3162 103.128 82.711 101.009 84.5473 99.1729C86.4188 97.3014 88.7318 95.8006 91.4862 94.6706C94.2406 93.5406 97.454 92.9756 101.126 92.9756C104.799 92.9756 108.065 93.6112 110.926 94.8825C113.821 96.1537 116.205 97.7075 118.076 99.5437L113.839 105.37Z" fill="white"/>
<path d="M123.43 136.887C123.43 136.64 123.43 136.339 123.43 135.986C123.43 135.633 123.447 135.139 123.483 134.503C123.553 133.832 123.642 132.967 123.747 131.908C123.889 130.813 124.065 129.383 124.277 127.617L127.085 105.158H122.688C122.017 105.158 121.452 104.947 120.993 104.523C120.534 104.064 120.304 103.393 120.304 102.51C120.304 102.475 120.34 102.175 120.41 101.61C120.481 101.009 120.552 100.391 120.622 99.7556C120.693 99.0847 120.764 98.4667 120.834 97.9017C120.905 97.3367 120.94 97.0189 120.94 96.9483L121.099 95.5181L129.415 93.8231L134.023 80.422C134.553 78.727 135.754 77.8795 137.625 77.8795H146.524L144.511 93.929H156.8L155.423 105.158H143.134L140.486 126.717C140.309 128.165 140.168 129.312 140.062 130.16C139.991 130.972 139.921 131.607 139.85 132.067C139.815 132.49 139.779 132.79 139.744 132.967C139.744 133.108 139.744 133.197 139.744 133.232C139.744 134.256 139.974 135.121 140.433 135.827C140.927 136.498 141.686 136.834 142.71 136.834C143.275 136.834 143.734 136.781 144.087 136.675C144.476 136.534 144.811 136.392 145.094 136.251C145.376 136.075 145.641 135.933 145.888 135.827C146.136 135.686 146.418 135.615 146.736 135.615C147.23 135.615 147.601 135.739 147.848 135.986C148.095 136.198 148.325 136.551 148.537 137.046L152.139 144.832C149.949 146.421 147.601 147.622 145.094 148.434C142.587 149.211 140.062 149.599 137.519 149.599C135.401 149.599 133.494 149.317 131.799 148.752C130.104 148.151 128.638 147.304 127.402 146.209C126.202 145.079 125.248 143.737 124.542 142.184C123.871 140.63 123.5 138.864 123.43 136.887Z" fill="white"/>
<path d="M179.919 137.416C181.755 137.416 183.397 136.869 184.845 135.774C186.293 134.644 187.511 133.126 188.5 131.219C189.524 129.277 190.301 127.035 190.831 124.492C191.396 121.914 191.678 119.177 191.678 116.282C191.678 112.292 191.131 109.449 190.036 107.754C188.977 106.024 187.229 105.158 184.792 105.158C182.956 105.158 181.314 105.723 179.866 106.853C178.418 107.948 177.182 109.449 176.158 111.356C175.17 113.263 174.393 115.505 173.828 118.083C173.298 120.661 173.033 123.397 173.033 126.293C173.033 130.213 173.563 133.055 174.622 134.821C175.717 136.551 177.483 137.416 179.919 137.416ZM178.436 149.599C175.364 149.599 172.486 149.087 169.802 148.063C167.154 147.039 164.841 145.556 162.863 143.614C160.921 141.636 159.385 139.217 158.255 136.357C157.16 133.461 156.613 130.142 156.613 126.399C156.613 121.526 157.407 117.059 158.997 112.998C160.621 108.902 162.793 105.37 165.512 102.404C168.231 99.4378 171.374 97.1248 174.94 95.4651C178.542 93.8054 182.32 92.9756 186.275 92.9756C189.348 92.9756 192.208 93.4876 194.856 94.5117C197.505 95.5358 199.8 97.0365 201.742 99.014C203.72 100.956 205.274 103.375 206.404 106.271C207.534 109.131 208.099 112.433 208.099 116.176C208.099 120.978 207.286 125.428 205.662 129.524C204.073 133.585 201.919 137.116 199.2 140.118C196.481 143.084 193.32 145.415 189.718 147.11C186.152 148.769 182.391 149.599 178.436 149.599Z" fill="white"/>
<path d="M211.552 148.752L218.226 93.8231H226.701C228.396 93.8231 229.721 94.2292 230.674 95.0414C231.627 95.8183 232.104 97.1072 232.104 98.9081V105.158C234.223 101.415 236.518 98.5373 238.99 96.5245C241.462 94.5117 244.022 93.5053 246.671 93.5053C248.154 93.5053 249.619 93.8408 251.067 94.5117L248.101 109.714C246.3 108.937 244.587 108.548 242.963 108.548C240.244 108.548 237.825 109.784 235.706 112.256C233.623 114.693 231.928 118.63 230.621 124.068L227.655 148.752H211.552Z" fill="white"/>
<path d="M275.115 93.8231L268.547 148.752H252.338L258.906 93.8231H275.115ZM278.187 78.78C278.187 80.0865 277.905 81.3225 277.34 82.4878C276.775 83.6178 276.033 84.6242 275.115 85.507C274.197 86.3545 273.137 87.0431 271.937 87.5728C270.771 88.0672 269.571 88.3143 268.335 88.3143C267.099 88.3143 265.916 88.0672 264.786 87.5728C263.656 87.0431 262.65 86.3545 261.767 85.507C260.919 84.6242 260.231 83.6178 259.701 82.4878C259.171 81.3225 258.906 80.0865 258.906 78.78C258.906 77.4734 259.171 76.2375 259.701 75.0722C260.231 73.9068 260.937 72.8828 261.82 72C262.738 71.1171 263.762 70.4286 264.892 69.9342C266.022 69.4045 267.205 69.1396 268.441 69.1396C269.712 69.1396 270.93 69.3868 272.096 69.8812C273.261 70.3756 274.285 71.0642 275.168 71.947C276.086 72.8298 276.81 73.8539 277.34 75.0192C277.905 76.1845 278.187 77.4381 278.187 78.78Z" fill="white"/>
<path d="M325.491 148.752H316.699C315.675 148.752 314.809 148.628 314.103 148.381C313.432 148.098 312.885 147.728 312.461 147.269C312.073 146.81 311.79 146.262 311.614 145.627C311.472 144.991 311.402 144.302 311.402 143.561V139.641C309.142 142.749 306.635 145.185 303.88 146.951C301.126 148.716 298.089 149.599 294.77 149.599C292.792 149.599 290.885 149.211 289.049 148.434C287.213 147.622 285.588 146.421 284.176 144.832C282.763 143.208 281.633 141.16 280.786 138.688C279.938 136.18 279.515 133.232 279.515 129.842C279.515 124.863 280.415 120.149 282.216 115.699C284.052 111.215 286.595 107.295 289.843 103.94C293.128 100.585 297.012 97.9193 301.497 95.9418C305.981 93.9643 310.907 92.9756 316.275 92.9756C318.888 92.9756 321.536 93.1522 324.22 93.5053C326.904 93.8584 329.552 94.494 332.165 95.4122L325.491 148.752ZM301.338 136.622C302.538 136.622 303.704 136.18 304.834 135.298C305.964 134.38 307.023 133.144 308.012 131.59C309.036 130.036 309.972 128.217 310.819 126.134C311.667 124.051 312.391 121.826 312.991 119.46L314.898 104.258H313.944C311.26 104.258 308.806 104.858 306.582 106.059C304.392 107.26 302.503 108.902 300.914 110.985C299.325 113.033 298.089 115.434 297.206 118.189C296.359 120.908 295.935 123.821 295.935 126.929C295.935 128.694 296.076 130.195 296.359 131.431C296.641 132.667 297.012 133.673 297.471 134.45C297.965 135.192 298.53 135.739 299.166 136.092C299.837 136.445 300.561 136.622 301.338 136.622Z" fill="white"/>
<path d="M497.516 96.6358C496.981 95.7109 495.762 95.4555 494.901 96.0879L424.892 147.51C423.495 148.536 424.221 150.751 425.954 150.751H513.259C520.169 150.751 524.485 143.269 521.026 137.288L497.516 96.6358Z" fill="white"/>
<path d="M468.003 48.3471C468.684 47.6251 468.81 46.5411 468.312 45.6824L444.409 4.47034C440.947 -1.49722 432.327 -1.48833 428.878 4.48635L352.215 137.294C348.762 143.275 353.079 150.751 359.985 150.751H367.493C369.962 150.751 372.322 149.733 374.017 147.937L468.003 48.3471Z" fill="white"/>
<path d="M471.118 55.1389C471.927 54.2783 473.337 54.4421 473.927 55.4652L492.14 87.0346C492.588 87.812 492.381 88.8022 491.658 89.334L410.475 149.04C408.963 150.152 407.134 150.752 405.257 150.752H385.306C383.763 150.752 382.966 148.908 384.023 147.784L471.118 55.1389Z" fill="#F42559"/>
</svg>
