<svg width="512" height="208" viewBox="0 0 512 208" fill="none" xmlns="http://www.w3.org/2000/svg">
<path fill-rule="evenodd" clip-rule="evenodd" d="M467.336 124.627C446.707 124.627 426.072 124.627 405.443 124.627C405.573 124.236 405.704 123.844 405.834 123.452C405.965 123.452 406.096 123.452 406.226 123.452C406.226 123.191 406.226 122.93 406.226 122.669C406.487 122.538 406.748 122.407 407.009 122.277C407.14 121.755 407.271 121.232 407.401 120.71C407.662 120.579 407.923 120.449 408.185 120.318C408.185 120.057 408.185 119.796 408.185 119.535C408.446 119.404 408.707 119.273 408.968 119.143C409.099 118.751 409.229 118.36 409.36 117.968C409.49 117.968 409.621 117.968 409.752 117.968C409.882 117.446 410.013 116.923 410.143 116.401C410.274 116.401 410.405 116.401 410.535 116.401C410.665 116.009 410.796 115.617 410.927 115.226C411.188 115.095 411.449 114.964 411.71 114.834C411.71 114.573 411.71 114.312 411.71 114.051C411.841 114.051 411.971 114.051 412.102 114.051C412.102 113.789 412.102 113.528 412.102 113.267C412.363 113.137 412.624 113.006 412.885 112.875C412.885 112.614 412.885 112.353 412.885 112.092C413.147 111.961 413.408 111.831 413.669 111.7C413.799 111.178 413.93 110.655 414.061 110.133C414.191 110.133 414.322 110.133 414.452 110.133C414.583 109.741 414.714 109.35 414.844 108.958C415.105 108.828 415.366 108.697 415.628 108.566C415.628 108.305 415.628 108.044 415.628 107.783C415.889 107.652 416.15 107.522 416.411 107.391C416.541 106.869 416.672 106.346 416.803 105.824C417.064 105.694 417.325 105.563 417.586 105.432C417.586 105.171 417.586 104.91 417.586 104.649C417.847 104.518 418.108 104.388 418.37 104.257C418.37 103.996 418.37 103.735 418.37 103.474C418.631 103.343 418.892 103.212 419.153 103.082C419.153 102.821 419.153 102.56 419.153 102.299C419.414 102.168 419.675 102.037 419.937 101.907C420.067 101.385 420.198 100.862 420.328 100.34C420.59 100.209 420.85 100.079 421.112 99.9482C421.112 99.6869 421.112 99.426 421.112 99.1647C421.373 99.0342 421.634 98.9034 421.895 98.773C421.895 98.5117 421.895 98.2508 421.895 97.9895C422.157 97.8591 422.417 97.7282 422.679 97.5978C422.679 97.3365 422.679 97.0756 422.679 96.8143C422.809 96.8143 422.94 96.8143 423.07 96.8143C423.201 96.4226 423.332 96.0308 423.462 95.6391C423.723 95.5087 423.984 95.3778 424.246 95.2474C424.246 94.9861 424.246 94.7252 424.246 94.4639C424.507 94.3335 424.768 94.2026 425.029 94.0722C425.029 93.8109 425.029 93.55 425.029 93.2887C425.29 93.1583 425.551 93.0274 425.813 92.897C425.943 92.5052 426.074 92.1135 426.204 91.7218C426.335 91.7218 426.466 91.7218 426.596 91.7218C426.726 91.1996 426.857 90.677 426.988 90.1549C427.118 90.1549 427.249 90.1549 427.379 90.1549C427.51 89.7631 427.641 89.3714 427.771 88.9797C428.033 88.8492 428.293 88.7184 428.555 88.5879C428.555 88.3266 428.555 88.0658 428.555 87.8045C428.816 87.674 429.077 87.5432 429.338 87.4127C429.469 87.021 429.599 86.6293 429.73 86.2375C456.757 86.2375 483.792 86.2375 510.818 86.2375C510.949 87.9349 511.08 89.6327 511.21 91.3301C511.341 91.3301 511.471 91.3301 511.602 91.3301C511.602 93.4192 511.602 95.5087 511.602 97.5978C511.732 97.5978 511.863 97.5978 511.994 97.5978C511.994 99.8173 511.994 102.038 511.994 104.257C511.994 110.192 512.158 116.165 510.818 120.71C510.557 122.799 510.296 124.889 510.035 126.978C508.729 131.417 507.423 135.857 506.118 140.297C505.987 140.297 505.856 140.297 505.726 140.297C505.726 140.558 505.726 140.819 505.726 141.08C505.595 141.08 505.465 141.08 505.334 141.08C505.334 141.472 505.334 141.863 505.334 142.255C505.204 142.255 505.073 142.255 504.942 142.255C504.812 142.908 504.681 143.561 504.551 144.214C504.42 144.214 504.289 144.214 504.159 144.214C504.159 144.475 504.159 144.736 504.159 144.997C504.029 144.997 503.898 144.997 503.767 144.997C503.767 145.389 503.767 145.781 503.767 146.173C503.637 146.173 503.506 146.173 503.375 146.173C503.114 146.956 502.853 147.739 502.592 148.523C502.462 148.523 502.331 148.523 502.2 148.523C502.2 148.784 502.2 149.045 502.2 149.306C502.07 149.306 501.939 149.306 501.809 149.306C501.809 149.568 501.809 149.829 501.809 150.09C501.678 150.09 501.547 150.09 501.417 150.09C501.417 150.351 501.417 150.612 501.417 150.873C501.286 150.873 501.156 150.873 501.025 150.873C501.025 151.135 501.025 151.395 501.025 151.657C500.895 151.657 500.764 151.657 500.633 151.657C500.633 151.918 500.633 152.179 500.633 152.44C500.503 152.44 500.372 152.44 500.242 152.44C500.242 152.702 500.242 152.962 500.242 153.224C500.111 153.224 499.98 153.224 499.85 153.224C499.85 153.485 499.85 153.746 499.85 154.007C499.719 154.007 499.589 154.007 499.458 154.007C499.458 154.268 499.458 154.529 499.458 154.791C499.328 154.791 499.197 154.791 499.066 154.791C499.066 155.052 499.066 155.313 499.066 155.574C498.805 155.705 498.544 155.835 498.283 155.966C498.153 156.488 498.022 157.011 497.891 157.533C497.63 157.663 497.369 157.794 497.108 157.924C496.977 158.447 496.846 158.969 496.716 159.491C496.455 159.622 496.194 159.753 495.933 159.883C495.933 160.144 495.933 160.405 495.933 160.667C495.671 160.797 495.41 160.928 495.149 161.058C495.149 161.32 495.149 161.581 495.149 161.842C494.888 161.972 494.627 162.103 494.366 162.234C494.366 162.495 494.366 162.756 494.366 163.017C494.104 163.147 493.843 163.278 493.582 163.409C493.582 163.67 493.582 163.931 493.582 164.192C493.321 164.323 493.06 164.453 492.799 164.584C492.799 164.845 492.799 165.106 492.799 165.367C492.537 165.498 492.277 165.629 492.015 165.759C491.885 166.151 491.754 166.543 491.624 166.934C491.232 167.196 490.84 167.456 490.448 167.718C490.448 167.979 490.448 168.24 490.448 168.501C489.926 168.893 489.404 169.285 488.881 169.676C488.881 169.938 488.881 170.199 488.881 170.46C488.359 170.852 487.837 171.243 487.314 171.635C487.314 171.896 487.314 172.157 487.314 172.419C486.139 173.463 484.964 174.508 483.789 175.552C483.789 175.814 483.789 176.075 483.789 176.336C482.745 177.25 481.699 178.164 480.655 179.078C480.394 179.47 480.133 179.861 479.872 180.253C479.61 180.253 479.349 180.253 479.088 180.253C478.044 181.428 476.999 182.604 475.954 183.779C475.693 183.779 475.432 183.779 475.171 183.779C474.649 184.432 474.126 185.085 473.604 185.737C473.343 185.737 473.082 185.737 472.82 185.737C472.559 186.129 472.298 186.521 472.037 186.913C471.645 187.043 471.253 187.174 470.862 187.304C470.731 187.566 470.6 187.827 470.47 188.088C470.209 188.088 469.948 188.088 469.687 188.088C469.425 188.48 469.164 188.871 468.903 189.263C468.642 189.263 468.381 189.263 468.12 189.263C467.989 189.524 467.858 189.785 467.728 190.046C467.336 190.177 466.944 190.308 466.553 190.438C466.553 190.569 466.553 190.7 466.553 190.83C466.291 190.83 466.03 190.83 465.769 190.83C465.639 191.091 465.508 191.352 465.377 191.613C465.116 191.613 464.855 191.613 464.594 191.613C464.464 191.875 464.333 192.136 464.202 192.397C463.811 192.527 463.419 192.658 463.027 192.789C463.027 192.919 463.027 193.05 463.027 193.18C462.505 193.311 461.982 193.442 461.46 193.572C461.33 193.833 461.199 194.094 461.068 194.356C460.807 194.356 460.546 194.356 460.285 194.356C460.285 194.486 460.285 194.617 460.285 194.747C460.024 194.747 459.763 194.747 459.501 194.747C459.501 194.878 459.501 195.009 459.501 195.139C459.24 195.139 458.979 195.139 458.718 195.139C458.718 195.269 458.718 195.4 458.718 195.531C458.457 195.531 458.196 195.531 457.935 195.531C457.935 195.661 457.935 195.792 457.935 195.922C457.673 195.922 457.412 195.922 457.151 195.922C457.021 196.184 456.89 196.445 456.759 196.706C455.584 197.098 454.409 197.489 453.234 197.881C453.234 198.012 453.234 198.142 453.234 198.273C452.973 198.273 452.712 198.273 452.45 198.273C452.45 198.403 452.45 198.534 452.45 198.665C451.928 198.795 451.406 198.926 450.883 199.056C450.883 199.187 450.883 199.318 450.883 199.448C450.231 199.578 449.577 199.709 448.925 199.84C448.925 199.97 448.925 200.101 448.925 200.232C448.663 200.232 448.403 200.232 448.141 200.232C448.141 200.362 448.141 200.493 448.141 200.623C447.75 200.623 447.358 200.623 446.966 200.623C446.966 200.754 446.966 200.885 446.966 201.015C446.574 201.015 446.183 201.015 445.791 201.015C445.791 201.145 445.791 201.276 445.791 201.407C445.53 201.407 445.269 201.407 445.007 201.407C445.007 201.537 445.007 201.668 445.007 201.798C444.224 201.929 443.44 202.06 442.657 202.19C433.773 205.683 423.282 207.281 410.927 207.283C406.488 207.152 402.047 207.021 397.608 206.891C397.608 206.76 397.608 206.63 397.608 206.499C396.564 206.499 395.518 206.499 394.474 206.499C394.474 206.369 394.474 206.238 394.474 206.107C393.56 206.107 392.646 206.107 391.732 206.107C386.771 204.932 381.807 203.757 376.846 202.582C376.846 202.451 376.846 202.321 376.846 202.19C375.671 201.929 374.496 201.668 373.32 201.407C373.32 201.276 373.32 201.145 373.32 201.015C373.059 201.015 372.798 201.015 372.537 201.015C372.537 200.885 372.537 200.754 372.537 200.623C371.754 200.493 370.97 200.362 370.187 200.232C370.187 200.101 370.187 199.97 370.187 199.84C369.925 199.84 369.664 199.84 369.403 199.84C369.403 199.709 369.403 199.578 369.403 199.448C369.011 199.448 368.62 199.448 368.228 199.448C368.228 199.318 368.228 199.187 368.228 199.056C367.967 199.056 367.706 199.056 367.445 199.056C367.445 198.926 367.445 198.795 367.445 198.665C366.792 198.534 366.138 198.403 365.486 198.273C365.486 198.142 365.486 198.012 365.486 197.881C364.702 197.62 363.919 197.359 363.135 197.098C363.135 196.967 363.135 196.836 363.135 196.706C362.874 196.706 362.613 196.706 362.352 196.706C362.352 196.575 362.352 196.445 362.352 196.314C362.091 196.314 361.83 196.314 361.569 196.314C361.569 196.184 361.569 196.053 361.569 195.922C361.307 195.922 361.046 195.922 360.785 195.922C360.785 195.792 360.785 195.661 360.785 195.531C360.524 195.531 360.263 195.531 360.002 195.531C360.002 195.4 360.002 195.269 360.002 195.139C359.74 195.139 359.479 195.139 359.218 195.139C359.218 195.009 359.218 194.878 359.218 194.747C358.957 194.747 358.696 194.747 358.435 194.747C358.435 194.617 358.435 194.486 358.435 194.356C358.173 194.356 357.913 194.356 357.651 194.356C357.521 194.094 357.39 193.833 357.259 193.572C356.476 193.311 355.693 193.05 354.909 192.789C354.909 192.658 354.909 192.527 354.909 192.397C354.517 192.266 354.126 192.136 353.734 192.005C353.603 191.744 353.473 191.483 353.342 191.222C352.82 191.091 352.297 190.96 351.775 190.83C351.645 190.569 351.514 190.308 351.384 190.046C351.122 190.046 350.861 190.046 350.6 190.046C350.47 189.785 350.339 189.524 350.208 189.263C349.947 189.263 349.686 189.263 349.425 189.263C349.164 188.871 348.903 188.48 348.641 188.088C348.38 188.088 348.119 188.088 347.858 188.088C347.597 187.696 347.336 187.304 347.074 186.913C346.813 186.913 346.552 186.913 346.291 186.913C346.03 186.521 345.769 186.129 345.508 185.737C345.246 185.737 344.985 185.737 344.724 185.737C344.332 185.215 343.941 184.693 343.549 184.171C343.288 184.171 343.027 184.171 342.765 184.171C342.112 183.387 341.459 182.604 340.807 181.82C340.545 181.82 340.285 181.82 340.023 181.82C338.718 180.384 337.412 178.947 336.106 177.511C334.67 176.205 333.233 174.899 331.797 173.594C331.797 173.332 331.797 173.072 331.797 172.81C331.013 172.157 330.23 171.504 329.447 170.852C329.447 170.59 329.447 170.329 329.447 170.068C328.924 169.676 328.402 169.285 327.88 168.893C327.88 168.632 327.88 168.371 327.88 168.109C327.488 167.848 327.096 167.587 326.704 167.326C326.704 167.065 326.704 166.804 326.704 166.543C326.313 166.281 325.921 166.02 325.529 165.759C325.529 165.498 325.529 165.237 325.529 164.976C325.137 164.714 324.746 164.453 324.354 164.192C324.224 163.8 324.093 163.409 323.962 163.017C323.701 163.017 323.44 163.017 323.179 163.017C322.941 163.889 322.854 164.001 322.395 164.584C322.265 164.584 322.134 164.584 322.004 164.584C322.004 164.845 322.004 165.106 322.004 165.367C321.742 165.498 321.481 165.629 321.22 165.759C321.22 166.02 321.22 166.281 321.22 166.543C320.828 166.804 320.437 167.065 320.045 167.326C320.045 167.587 320.045 167.848 320.045 168.109C319.653 168.371 319.261 168.632 318.87 168.893C318.87 169.154 318.87 169.415 318.87 169.676C318.348 170.068 317.825 170.46 317.303 170.852C317.303 171.113 317.303 171.374 317.303 171.635C316.519 172.288 315.736 172.941 314.952 173.594C314.952 173.855 314.952 174.116 314.952 174.377C313.385 175.813 311.819 177.25 310.252 178.686C309.468 179.6 308.685 180.514 307.901 181.428C307.64 181.428 307.379 181.428 307.118 181.428C306.465 182.212 305.812 182.995 305.159 183.779C304.898 183.779 304.637 183.779 304.376 183.779C303.984 184.301 303.592 184.824 303.2 185.346C302.939 185.346 302.678 185.346 302.417 185.346C302.156 185.737 301.895 186.129 301.634 186.521C301.372 186.521 301.111 186.521 300.85 186.521C300.589 186.913 300.328 187.304 300.067 187.696C299.805 187.696 299.544 187.696 299.283 187.696C299.153 187.957 299.022 188.218 298.891 188.48C298.5 188.61 298.108 188.741 297.716 188.871C297.716 189.002 297.716 189.133 297.716 189.263C297.455 189.263 297.194 189.263 296.933 189.263C296.802 189.524 296.671 189.785 296.541 190.046C296.28 190.046 296.019 190.046 295.758 190.046C295.627 190.308 295.496 190.569 295.366 190.83C295.105 190.83 294.844 190.83 294.582 190.83C294.452 191.091 294.321 191.352 294.191 191.613C293.668 191.744 293.146 191.875 292.624 192.005C292.493 192.266 292.362 192.527 292.232 192.789C291.71 192.919 291.187 193.05 290.665 193.18C290.535 193.442 290.404 193.703 290.273 193.964C290.012 193.964 289.751 193.964 289.49 193.964C289.49 194.094 289.49 194.225 289.49 194.356C289.229 194.356 288.968 194.356 288.706 194.356C288.706 194.486 288.706 194.617 288.706 194.747C288.445 194.747 288.184 194.747 287.923 194.747C287.923 194.878 287.923 195.009 287.923 195.139C287.662 195.139 287.401 195.139 287.139 195.139C287.139 195.269 287.139 195.4 287.139 195.531C286.878 195.531 286.617 195.531 286.356 195.531C286.356 195.661 286.356 195.792 286.356 195.922C286.095 195.922 285.834 195.922 285.573 195.922C285.573 196.053 285.573 196.184 285.573 196.314C285.311 196.314 285.05 196.314 284.789 196.314C284.789 196.445 284.789 196.575 284.789 196.706C284.528 196.706 284.267 196.706 284.006 196.706C284.006 196.836 284.006 196.967 284.006 197.098C283.744 197.098 283.483 197.098 283.222 197.098C283.222 197.228 283.222 197.359 283.222 197.489C282.439 197.751 281.655 198.012 280.872 198.273C280.872 198.403 280.872 198.534 280.872 198.665C280.48 198.665 280.088 198.665 279.697 198.665C279.697 198.795 279.697 198.926 279.697 199.056C279.435 199.056 279.174 199.056 278.913 199.056C278.913 199.187 278.913 199.318 278.913 199.448C278.521 199.448 278.13 199.448 277.738 199.448C277.738 199.578 277.738 199.709 277.738 199.84C277.477 199.84 277.216 199.84 276.954 199.84C276.954 199.97 276.954 200.101 276.954 200.232C276.563 200.232 276.171 200.232 275.779 200.232C275.779 200.362 275.779 200.493 275.779 200.623C275.518 200.623 275.257 200.623 274.996 200.623C274.996 200.754 274.996 200.885 274.996 201.015C274.212 201.145 273.429 201.276 272.645 201.407C272.645 201.537 272.645 201.668 272.645 201.798C272.254 201.798 271.862 201.798 271.47 201.798C271.47 201.929 271.47 202.06 271.47 202.19C271.078 202.19 270.687 202.19 270.295 202.19C270.295 202.321 270.295 202.451 270.295 202.582C269.903 202.582 269.512 202.582 269.12 202.582C269.12 202.712 269.12 202.843 269.12 202.974C268.728 202.974 268.336 202.974 267.945 202.974C267.945 203.104 267.945 203.235 267.945 203.365C266.9 203.496 265.855 203.627 264.811 203.757C264.811 203.888 264.811 204.018 264.811 204.149C264.289 204.149 263.766 204.149 263.244 204.149C263.244 204.279 263.244 204.41 263.244 204.541C262.722 204.541 262.199 204.541 261.677 204.541C261.677 204.671 261.677 204.802 261.677 204.932C261.155 204.932 260.632 204.932 260.11 204.932C260.11 205.063 260.11 205.194 260.11 205.324C259.457 205.324 258.804 205.324 258.151 205.324C258.151 205.454 258.151 205.585 258.151 205.716C257.368 205.716 256.584 205.716 255.801 205.716C255.801 205.846 255.801 205.977 255.801 206.107C254.887 206.107 253.973 206.107 253.059 206.107C253.059 206.238 253.059 206.369 253.059 206.499C252.145 206.499 251.231 206.499 250.317 206.499C250.317 206.63 250.317 206.76 250.317 206.891C248.881 206.891 247.444 206.891 246.008 206.891C246.008 207.021 246.008 207.152 246.008 207.283C243.919 207.283 241.829 207.283 239.74 207.283C234.637 207.283 228.899 207.651 224.854 206.499C223.026 206.369 221.198 206.238 219.37 206.107C219.37 205.977 219.37 205.846 219.37 205.716C218.586 205.716 217.803 205.716 217.019 205.716C217.019 205.585 217.019 205.454 217.019 205.324C216.367 205.324 215.713 205.324 215.061 205.324C215.061 205.194 215.061 205.063 215.061 204.932C214.539 204.932 214.016 204.932 213.494 204.932C213.494 204.802 213.494 204.671 213.494 204.541C212.841 204.541 212.188 204.541 211.535 204.541C211.535 204.41 211.535 204.279 211.535 204.149C211.013 204.149 210.49 204.149 209.968 204.149C209.968 204.018 209.968 203.888 209.968 203.757C209.054 203.627 208.14 203.496 207.226 203.365C207.226 203.235 207.226 203.104 207.226 202.974C206.834 202.974 206.443 202.974 206.051 202.974C206.051 202.843 206.051 202.712 206.051 202.582C204.745 202.321 203.439 202.06 202.134 201.798C202.134 201.668 202.134 201.537 202.134 201.407C201.872 201.407 201.611 201.407 201.35 201.407C201.35 201.276 201.35 201.145 201.35 201.015C200.175 200.754 199 200.493 197.825 200.232C197.825 200.101 197.825 199.97 197.825 199.84C197.172 199.709 196.519 199.578 195.866 199.448C195.866 199.318 195.866 199.187 195.866 199.056C195.344 198.926 194.821 198.795 194.299 198.665C194.299 198.534 194.299 198.403 194.299 198.273C193.907 198.273 193.516 198.273 193.124 198.273C193.124 198.142 193.124 198.012 193.124 197.881C192.34 197.62 191.557 197.359 190.773 197.098C190.773 196.967 190.773 196.836 190.773 196.706C190.251 196.575 189.729 196.445 189.206 196.314C189.076 196.053 188.945 195.792 188.815 195.531C188.553 195.531 188.293 195.531 188.031 195.531C188.031 195.4 188.031 195.269 188.031 195.139C187.77 195.139 187.509 195.139 187.248 195.139C187.248 195.009 187.248 194.878 187.248 194.747C186.987 194.747 186.726 194.747 186.464 194.747C186.464 194.617 186.464 194.486 186.464 194.356C186.203 194.356 185.942 194.356 185.681 194.356C185.681 194.225 185.681 194.094 185.681 193.964C185.42 193.964 185.159 193.964 184.897 193.964C184.767 193.703 184.636 193.442 184.506 193.18C183.984 193.05 183.461 192.919 182.939 192.789C182.808 192.527 182.678 192.266 182.547 192.005C182.025 191.875 181.502 191.744 180.98 191.613C180.85 191.352 180.719 191.091 180.588 190.83C180.327 190.83 180.066 190.83 179.805 190.83C179.674 190.569 179.544 190.308 179.413 190.046C179.152 190.046 178.891 190.046 178.63 190.046C178.499 189.785 178.368 189.524 178.238 189.263C177.977 189.263 177.716 189.263 177.455 189.263C177.324 189.002 177.193 188.741 177.063 188.48C176.802 188.48 176.541 188.48 176.279 188.48C176.018 188.088 175.757 187.696 175.496 187.304C175.235 187.304 174.974 187.304 174.712 187.304C174.582 187.043 174.451 186.782 174.321 186.521C174.059 186.521 173.799 186.521 173.537 186.521C173.407 186.26 173.276 185.999 173.145 185.737C172.754 185.607 172.362 185.476 171.97 185.346C171.709 184.954 171.448 184.562 171.187 184.171C170.926 184.171 170.665 184.171 170.403 184.171C170.012 183.648 169.62 183.126 169.228 182.604C168.967 182.604 168.706 182.604 168.445 182.604C167.792 181.82 167.139 181.037 166.486 180.253C166.225 180.253 165.964 180.253 165.703 180.253C164.919 179.339 164.136 178.425 163.352 177.511C163.091 177.511 162.83 177.511 162.569 177.511C162.438 177.25 162.307 176.989 162.177 176.728C161.21 175.813 159.576 173.964 158.26 173.594C158.129 173.985 157.998 174.377 157.868 174.769C157.738 174.769 157.607 174.769 157.476 174.769C157.476 175.03 157.476 175.291 157.476 175.552C157.215 175.683 156.954 175.814 156.693 175.944C156.693 176.205 156.693 176.466 156.693 176.728C156.431 176.858 156.171 176.989 155.909 177.119C155.909 177.381 155.909 177.642 155.909 177.903C155.518 178.164 155.126 178.425 154.734 178.686C154.734 178.948 154.734 179.208 154.734 179.47C154.212 179.861 153.689 180.253 153.167 180.645C153.167 180.906 153.167 181.167 153.167 181.428C151.47 182.995 149.772 184.562 148.075 186.129C147.552 186.782 147.03 187.435 146.508 188.088C146.246 188.088 145.986 188.088 145.724 188.088C145.333 188.61 144.941 189.133 144.549 189.655C144.288 189.655 144.027 189.655 143.766 189.655C143.504 190.046 143.243 190.438 142.982 190.83C142.721 190.83 142.46 190.83 142.199 190.83C142.068 191.091 141.937 191.352 141.807 191.613C141.546 191.613 141.285 191.613 141.023 191.613C140.893 191.875 140.762 192.136 140.632 192.397C140.24 192.527 139.848 192.658 139.457 192.789C139.457 192.919 139.457 193.05 139.457 193.18C138.934 193.311 138.412 193.442 137.89 193.572C137.759 193.833 137.628 194.094 137.498 194.356C136.714 194.617 135.931 194.878 135.148 195.139C135.017 195.4 134.886 195.661 134.756 195.922C134.234 196.053 133.711 196.184 133.189 196.314C133.189 196.445 133.189 196.575 133.189 196.706C132.667 196.836 132.144 196.967 131.622 197.098C131.622 197.228 131.622 197.359 131.622 197.489C131.23 197.489 130.838 197.489 130.447 197.489C130.447 197.62 130.447 197.751 130.447 197.881C129.925 198.012 129.402 198.142 128.88 198.273C128.88 198.403 128.88 198.534 128.88 198.665C128.096 198.795 127.313 198.926 126.529 199.056C126.529 199.187 126.529 199.318 126.529 199.448C126.138 199.448 125.746 199.448 125.354 199.448C125.354 199.578 125.354 199.709 125.354 199.84C124.962 199.84 124.571 199.84 124.179 199.84C124.179 199.97 124.179 200.101 124.179 200.232C123.787 200.232 123.396 200.232 123.004 200.232C123.004 200.362 123.004 200.493 123.004 200.623C121.959 200.754 120.914 200.885 119.87 201.015C119.87 201.145 119.87 201.276 119.87 201.407C118.564 201.537 117.258 201.668 115.953 201.798C115.953 201.929 115.953 202.06 115.953 202.19C115.039 202.19 114.124 202.19 113.211 202.19C109.939 203.129 105.361 202.974 101.067 202.974C92.1886 202.974 83.3073 202.974 74.4291 202.974C49.6219 202.974 24.8072 202.974 0 202.974C0 136.647 0 70.3003 0 3.97385C24.8072 3.97385 49.6219 3.97385 74.4291 3.97385C83.5686 4.1043 92.7108 4.23514 101.85 4.36558C101.85 4.49603 101.85 4.62687 101.85 4.75731C102.895 4.75731 103.94 4.75731 104.984 4.75731C104.984 4.88776 104.984 5.0186 104.984 5.14905C105.768 5.14905 106.551 5.14905 107.335 5.14905C107.335 5.27949 107.335 5.41033 107.335 5.54078C107.987 5.54078 108.64 5.54078 109.293 5.54078C109.293 5.67122 109.293 5.80206 109.293 5.93251C109.946 5.93251 110.599 5.93251 111.252 5.93251C111.252 6.06296 111.252 6.19379 111.252 6.32424C112.296 6.45469 113.341 6.58553 114.386 6.71597C114.386 6.84642 114.386 6.97726 114.386 7.1077C114.777 7.1077 115.169 7.1077 115.561 7.1077C115.561 7.23815 115.561 7.36899 115.561 7.49944C115.953 7.49944 116.344 7.49944 116.736 7.49944C116.736 7.62988 116.736 7.76072 116.736 7.89117C117.128 7.89117 117.52 7.89117 117.911 7.89117C117.911 8.02162 117.911 8.15245 117.911 8.2829C118.695 8.41335 119.478 8.54418 120.262 8.67463C120.262 8.80508 120.262 8.93592 120.262 9.06636C120.784 9.19681 121.306 9.32765 121.829 9.4581C121.829 9.58854 121.829 9.71938 121.829 9.84983C122.22 9.84983 122.612 9.84983 123.004 9.84983C123.004 9.98027 123.004 10.1111 123.004 10.2416C123.787 10.5028 124.571 10.7637 125.354 11.025C125.354 11.1555 125.354 11.2863 125.354 11.4168C125.615 11.4168 125.876 11.4168 126.138 11.4168C126.138 11.5472 126.138 11.678 126.138 11.8085C126.66 11.9389 127.182 12.0698 127.705 12.2002C127.835 12.4615 127.966 12.7224 128.096 12.9837C128.618 13.1141 129.141 13.245 129.663 13.3754C129.794 13.6367 129.925 13.8976 130.055 14.1589C130.316 14.1589 130.577 14.1589 130.838 14.1589C130.838 14.2893 130.838 14.4202 130.838 14.5506C131.1 14.5506 131.361 14.5506 131.622 14.5506C131.883 14.9423 132.144 15.3341 132.405 15.7258C132.667 15.7258 132.928 15.7258 133.189 15.7258C133.45 16.1175 133.711 16.5093 133.972 16.901C134.234 16.901 134.494 16.901 134.756 16.901C135.278 17.554 135.801 18.207 136.323 18.8597C136.584 18.8597 136.845 18.8597 137.106 18.8597C138.02 19.904 138.934 20.9492 139.848 21.9935C141.023 23.0379 142.199 24.083 143.374 25.1274C143.374 25.3887 143.374 25.6495 143.374 25.9108C144.026 26.433 144.68 26.9556 145.333 27.4778C145.333 27.739 145.333 27.9999 145.333 28.2612C145.594 28.3917 145.855 28.5225 146.116 28.653C146.116 28.9142 146.116 29.1751 146.116 29.4364C146.508 29.6977 146.899 29.9586 147.291 30.2199C147.291 30.4812 147.291 30.7421 147.291 31.0033C147.552 31.1338 147.813 31.2646 148.075 31.3951C148.205 31.9173 148.336 32.4398 148.466 32.962C148.728 33.0925 148.989 33.2233 149.25 33.3537C149.38 33.8759 149.511 34.3985 149.642 34.9207C149.772 34.9207 149.903 34.9207 150.033 34.9207C150.295 35.7041 150.555 36.4876 150.817 37.2711C150.947 37.2711 151.078 37.2711 151.209 37.2711C151.339 37.9241 151.47 38.5767 151.6 39.2297C151.731 39.2297 151.862 39.2297 151.992 39.2297C152.509 40.247 152.391 41.5711 153.167 42.3636C153.167 42.1023 153.167 41.8414 153.167 41.5801C153.689 41.1884 154.212 40.7966 154.734 40.4049C154.734 40.1436 154.734 39.8827 154.734 39.6214C155.256 39.2297 155.779 38.838 156.301 38.4463C156.301 38.185 156.301 37.9241 156.301 37.6628C156.954 37.1406 157.607 36.618 158.26 36.0959C158.26 35.8346 158.26 35.5737 158.26 35.3124C159.043 34.6594 159.827 34.0068 160.61 33.3537C162.177 31.6564 163.744 29.9586 165.311 28.2612C165.833 27.8695 166.356 27.4778 166.878 27.086C167.008 26.8247 167.139 26.5639 167.27 26.3026C167.531 26.3026 167.792 26.3026 168.053 26.3026C168.706 25.5191 169.359 24.7356 170.012 23.9522C170.273 23.9522 170.534 23.9522 170.795 23.9522C171.187 23.43 171.579 22.9074 171.97 22.3852C172.232 22.3852 172.492 22.3852 172.754 22.3852C173.145 21.8631 173.537 21.3405 173.929 20.8183C174.19 20.8183 174.451 20.8183 174.712 20.8183C174.974 20.4266 175.235 20.0349 175.496 19.6431C175.757 19.6431 176.018 19.6431 176.279 19.6431C176.279 19.5127 176.279 19.3818 176.279 19.2514C176.671 19.1209 177.063 18.9901 177.455 18.8597C177.585 18.5984 177.716 18.3375 177.846 18.0762C178.108 18.0762 178.368 18.0762 178.63 18.0762C178.891 17.6845 179.152 17.2927 179.413 16.901C179.674 16.901 179.935 16.901 180.197 16.901C180.327 16.6397 180.458 16.3788 180.588 16.1175C181.111 15.9871 181.633 15.8563 182.155 15.7258C182.155 15.5954 182.155 15.4645 182.155 15.3341C182.547 15.2036 182.939 15.0728 183.331 14.9423C183.461 14.6811 183.592 14.4202 183.722 14.1589C183.984 14.1589 184.244 14.1589 184.506 14.1589C184.506 14.0284 184.506 13.8976 184.506 13.7671C184.767 13.7671 185.028 13.7671 185.289 13.7671C185.42 13.5059 185.55 13.245 185.681 12.9837C186.203 12.8532 186.726 12.7224 187.248 12.592C187.378 12.3307 187.509 12.0698 187.64 11.8085C188.423 11.5472 189.206 11.2863 189.99 11.025C189.99 10.8946 189.99 10.7637 189.99 10.6333C190.773 10.372 191.557 10.1111 192.34 9.84983C192.34 9.71938 192.34 9.58854 192.34 9.4581C192.993 9.32765 193.646 9.19681 194.299 9.06636C194.299 8.93592 194.299 8.80508 194.299 8.67463C194.56 8.67463 194.821 8.67463 195.082 8.67463C195.082 8.54418 195.082 8.41335 195.082 8.2829C195.474 8.2829 195.866 8.2829 196.258 8.2829C196.258 8.15245 196.258 8.02162 196.258 7.89117C196.519 7.89117 196.78 7.89117 197.041 7.89117C197.041 7.76072 197.041 7.62988 197.041 7.49944C197.433 7.49944 197.825 7.49944 198.216 7.49944C198.216 7.36899 198.216 7.23815 198.216 7.1077C198.478 7.1077 198.739 7.1077 199 7.1077C199 6.97726 199 6.84642 199 6.71597C199.783 6.58553 200.567 6.45469 201.35 6.32424C201.35 6.19379 201.35 6.06296 201.35 5.93251C201.742 5.93251 202.134 5.93251 202.525 5.93251C202.525 5.80206 202.525 5.67122 202.525 5.54078C202.917 5.54078 203.309 5.54078 203.701 5.54078C203.701 5.41033 203.701 5.27949 203.701 5.14905C204.092 5.14905 204.484 5.14905 204.876 5.14905C204.876 5.0186 204.876 4.88776 204.876 4.75731C205.268 4.75731 205.659 4.75731 206.051 4.75731C206.051 4.62687 206.051 4.49603 206.051 4.36558C206.573 4.36558 207.096 4.36558 207.618 4.36558C216.274 1.29049 226.416 0.0596649 238.173 0.056531C243.276 0.0553558 249.015 -0.311697 253.059 0.839995C254.103 0.839995 255.148 0.839995 256.193 0.839995C256.193 0.970441 256.193 1.10128 256.193 1.23173C257.107 1.23173 258.021 1.23173 258.935 1.23173C258.935 1.36217 258.935 1.49301 258.935 1.62346C259.718 1.62346 260.502 1.62346 261.285 1.62346C261.285 1.75391 261.285 1.88474 261.285 2.01519C261.938 2.01519 262.591 2.01519 263.244 2.01519C263.244 2.14564 263.244 2.27648 263.244 2.40692C263.896 2.40692 264.55 2.40692 265.202 2.40692C265.202 2.53737 265.202 2.66821 265.202 2.79865C265.855 2.79865 266.509 2.79865 267.161 2.79865C267.161 2.9291 267.161 3.05994 267.161 3.19039C267.683 3.19039 268.206 3.19039 268.728 3.19039C268.728 3.32083 268.728 3.45167 268.728 3.58212C269.25 3.58212 269.773 3.58212 270.295 3.58212C270.295 3.71256 270.295 3.8434 270.295 3.97385C270.817 3.97385 271.34 3.97385 271.862 3.97385C271.862 4.1043 271.862 4.23514 271.862 4.36558C274.604 5.14905 277.347 5.93251 280.088 6.71597C280.088 6.84642 280.088 6.97726 280.088 7.1077C280.35 7.1077 280.61 7.1077 280.872 7.1077C280.872 7.23815 280.872 7.36899 280.872 7.49944C281.263 7.49944 281.655 7.49944 282.047 7.49944C282.047 7.62988 282.047 7.76072 282.047 7.89117C282.308 7.89117 282.569 7.89117 282.83 7.89117C282.83 8.02162 282.83 8.15245 282.83 8.2829C283.483 8.41335 284.136 8.54418 284.789 8.67463C284.789 8.80508 284.789 8.93592 284.789 9.06636C285.573 9.32765 286.356 9.58854 287.139 9.84983C287.139 9.98027 287.139 10.1111 287.139 10.2416C287.401 10.2416 287.662 10.2416 287.923 10.2416C287.923 10.372 287.923 10.5028 287.923 10.6333C288.184 10.6333 288.445 10.6333 288.706 10.6333C288.706 10.7637 288.706 10.8946 288.706 11.025C288.968 11.025 289.229 11.025 289.49 11.025C289.49 11.1555 289.49 11.2863 289.49 11.4168C289.751 11.4168 290.012 11.4168 290.273 11.4168C290.273 11.5472 290.273 11.678 290.273 11.8085C290.535 11.8085 290.796 11.8085 291.057 11.8085C291.187 12.0698 291.318 12.3307 291.449 12.592C292.232 12.8532 293.015 13.1141 293.799 13.3754C293.929 13.6367 294.06 13.8976 294.191 14.1589C294.452 14.1589 294.713 14.1589 294.974 14.1589C295.105 14.4202 295.235 14.6811 295.366 14.9423C296.541 15.5954 297.716 16.2484 298.891 16.901C298.891 17.1623 298.891 17.4232 298.891 17.6845C297.953 18.3316 298.645 17.9787 298.108 18.8597C297.978 18.8597 297.847 18.8597 297.716 18.8597C297.716 19.1209 297.716 19.3818 297.716 19.6431C297.455 19.7736 297.194 19.9044 296.933 20.0349C296.802 20.557 296.671 21.0796 296.541 21.6018C296.28 21.7322 296.019 21.8631 295.758 21.9935C295.627 22.5157 295.496 23.0383 295.366 23.5604C295.105 23.6909 294.844 23.8217 294.582 23.9522C294.452 24.4744 294.321 24.9969 294.191 25.5191C293.929 25.6495 293.668 25.7804 293.407 25.9108C293.277 26.433 293.146 26.9556 293.015 27.4778C292.754 27.6082 292.493 27.739 292.232 27.8695C292.102 28.3917 291.971 28.9142 291.84 29.4364C291.579 29.5669 291.318 29.6977 291.057 29.8282C290.926 30.3503 290.796 30.8729 290.665 31.3951C290.404 31.5255 290.143 31.6564 289.882 31.7868C289.751 32.309 289.62 32.8316 289.49 33.3537C289.229 33.4842 288.968 33.615 288.706 33.7455C288.576 34.2677 288.445 34.7902 288.315 35.3124C288.184 35.3124 288.053 35.3124 287.923 35.3124C287.792 35.7041 287.662 36.0959 287.531 36.4876C287.27 36.618 287.009 36.7489 286.748 36.8793C286.617 37.4015 286.486 37.9241 286.356 38.4463C286.226 38.4463 286.095 38.4463 285.964 38.4463C285.834 38.838 285.703 39.2297 285.573 39.6214C285.311 39.7519 285.05 39.8827 284.789 40.0132C284.659 40.5354 284.528 41.0579 284.397 41.5801C284.267 41.5801 284.136 41.5801 284.006 41.5801C283.875 41.9718 283.744 42.3636 283.614 42.7553C283.353 42.8857 283.092 43.0166 282.83 43.147C282.7 43.6692 282.569 44.1918 282.439 44.714C282.177 44.8444 281.917 44.9752 281.655 45.1057C281.655 45.367 281.655 45.6279 281.655 45.8892C281.394 46.0196 281.133 46.1504 280.872 46.2809C280.741 46.8031 280.61 47.3256 280.48 47.8478C280.219 47.9783 279.958 48.1091 279.697 48.2395C279.697 48.5008 279.697 48.7617 279.697 49.023C279.435 49.1535 279.174 49.2843 278.913 49.4147C278.783 49.9369 278.652 50.4595 278.521 50.9817C278.26 51.1121 277.999 51.243 277.738 51.3734C277.607 51.7651 277.477 52.1569 277.346 52.5486C276.862 52.2877 276.804 51.9258 276.563 51.7651C276.301 51.7651 276.041 51.7651 275.779 51.7651C275.649 51.5039 275.518 51.243 275.388 50.9817C275.126 50.9817 274.865 50.9817 274.604 50.9817C274.474 50.7204 274.343 50.4595 274.212 50.1982C273.951 50.1982 273.69 50.1982 273.429 50.1982C273.298 49.9369 273.168 49.676 273.037 49.4147C272.776 49.4147 272.515 49.4147 272.254 49.4147C272.123 49.1535 271.992 48.8926 271.862 48.6313C271.601 48.6313 271.34 48.6313 271.078 48.6313C271.078 48.5008 271.078 48.37 271.078 48.2395C270.817 48.2395 270.556 48.2395 270.295 48.2395C270.295 48.1091 270.295 47.9783 270.295 47.8478C270.034 47.8478 269.773 47.8478 269.512 47.8478C269.512 47.7174 269.512 47.5865 269.512 47.4561C269.25 47.4561 268.989 47.4561 268.728 47.4561C268.728 47.3256 268.728 47.1948 268.728 47.0644C268.467 47.0644 268.206 47.0644 267.945 47.0644C267.814 46.8031 267.683 46.5422 267.553 46.2809C267.161 46.2809 266.769 46.2809 266.378 46.2809C266.378 46.1504 266.378 46.0196 266.378 45.8892C266.116 45.8892 265.855 45.8892 265.594 45.8892C265.594 45.7587 265.594 45.6279 265.594 45.4974C265.072 45.367 264.549 45.2361 264.027 45.1057C264.027 44.9752 264.027 44.8444 264.027 44.714C263.375 44.5835 262.721 44.4527 262.069 44.3222C262.069 44.1918 262.069 44.0609 262.069 43.9305C261.285 43.8001 260.502 43.6692 259.718 43.5388C259.718 43.4083 259.718 43.2775 259.718 43.147C259.327 43.147 258.935 43.147 258.543 43.147C258.543 43.0166 258.543 42.8857 258.543 42.7553C258.151 42.7553 257.76 42.7553 257.368 42.7553C257.368 42.6249 257.368 42.494 257.368 42.3636C256.976 42.3636 256.584 42.3636 256.193 42.3636C256.193 42.2331 256.193 42.1023 256.193 41.9718C255.67 41.9718 255.148 41.9718 254.626 41.9718C254.626 41.8414 254.626 41.7106 254.626 41.5801C253.581 41.4497 252.536 41.3188 251.492 41.1884C251.492 41.0579 251.492 40.9271 251.492 40.7966C250.839 40.7966 250.186 40.7966 249.533 40.7966C249.533 40.6662 249.533 40.5354 249.533 40.4049C248.75 40.4049 247.966 40.4049 247.183 40.4049C247.183 40.2745 247.183 40.1436 247.183 40.0132C246.138 40.0132 245.093 40.0132 244.049 40.0132C244.049 39.8827 244.049 39.7519 244.049 39.6214C242.135 39.0844 234.09 39.6171 232.689 40.0132C230.208 40.2745 227.727 40.5354 225.246 40.7966C221.459 41.9718 217.672 43.147 213.886 44.3222C213.886 44.4527 213.886 44.5835 213.886 44.714C213.102 44.9752 212.319 45.2361 211.535 45.4974C211.535 45.6279 211.535 45.7587 211.535 45.8892C211.274 45.8892 211.013 45.8892 210.752 45.8892C210.752 46.0196 210.752 46.1504 210.752 46.2809C210.49 46.2809 210.23 46.2809 209.968 46.2809C209.968 46.4113 209.968 46.5422 209.968 46.6726C209.707 46.6726 209.446 46.6726 209.185 46.6726C209.185 46.8031 209.185 46.9339 209.185 47.0644C208.924 47.0644 208.663 47.0644 208.401 47.0644C208.401 47.1948 208.401 47.3256 208.401 47.4561C208.14 47.4561 207.879 47.4561 207.618 47.4561C207.618 47.5865 207.618 47.7174 207.618 47.8478C207.357 47.8478 207.096 47.8478 206.834 47.8478C206.834 47.9783 206.834 48.1091 206.834 48.2395C206.573 48.2395 206.312 48.2395 206.051 48.2395C205.921 48.5008 205.79 48.7617 205.659 49.023C205.137 49.1535 204.614 49.2843 204.092 49.4147C203.962 49.676 203.831 49.9369 203.701 50.1982C203.439 50.1982 203.178 50.1982 202.917 50.1982C202.917 50.3287 202.917 50.4595 202.917 50.5899C202.525 50.7204 202.134 50.8512 201.742 50.9817C201.611 51.243 201.481 51.5039 201.35 51.7651C201.089 51.7651 200.828 51.7651 200.567 51.7651C200.305 52.1569 200.045 52.5486 199.783 52.9403C199.522 52.9403 199.261 52.9403 199 52.9403C198.739 53.3321 198.478 53.7238 198.216 54.1155C197.955 54.1155 197.694 54.1155 197.433 54.1155C197.041 54.6377 196.649 55.1603 196.258 55.6825C195.996 55.6825 195.736 55.6825 195.474 55.6825C194.299 56.9881 193.124 58.2941 191.949 59.5998C190.773 60.6441 189.598 61.6893 188.423 62.7336C188.423 62.9949 188.423 63.2558 188.423 63.5171C187.901 63.9088 187.378 64.3006 186.856 64.6923C186.726 65.084 186.595 65.4758 186.464 65.8675C186.203 65.9979 185.942 66.1288 185.681 66.2592C185.681 66.5205 185.681 66.7814 185.681 67.0427C185.42 67.1731 185.159 67.304 184.897 67.4344C184.897 67.6957 184.897 67.9566 184.897 68.2179C184.636 68.3483 184.375 68.4792 184.114 68.6096C183.984 69.0013 183.853 69.3931 183.722 69.7848C183.592 69.7848 183.461 69.7848 183.331 69.7848C183.2 70.307 183.069 70.8296 182.939 71.3517C182.678 71.4822 182.417 71.613 182.155 71.7435C182.155 72.0047 182.155 72.2656 182.155 72.5269C182.025 72.5269 181.894 72.5269 181.764 72.5269C181.764 72.7882 181.764 73.0491 181.764 73.3104C181.633 73.3104 181.502 73.3104 181.372 73.3104C181.372 73.5717 181.372 73.8326 181.372 74.0939C181.241 74.0939 181.111 74.0939 180.98 74.0939C180.98 74.3551 180.98 74.616 180.98 74.8773C180.85 74.8773 180.719 74.8773 180.588 74.8773C180.588 75.1386 180.588 75.3995 180.588 75.6608C180.458 75.6608 180.327 75.6608 180.197 75.6608C180.197 75.9221 180.197 76.183 180.197 76.4442C180.066 76.4442 179.935 76.4442 179.805 76.4442C179.544 77.2277 179.283 78.0112 179.021 78.7946C178.891 78.7946 178.76 78.7946 178.63 78.7946C178.63 79.1864 178.63 79.5781 178.63 79.9698C178.499 79.9698 178.368 79.9698 178.238 79.9698C178.238 80.2311 178.238 80.492 178.238 80.7533C178.108 80.7533 177.977 80.7533 177.846 80.7533C177.716 81.5368 177.585 82.3202 177.455 83.1037C177.324 83.1037 177.193 83.1037 177.063 83.1037C177.063 83.4954 177.063 83.8872 177.063 84.2789C176.932 84.2789 176.802 84.2789 176.671 84.2789C176.671 84.6706 176.671 85.0623 176.671 85.4541C176.541 85.4541 176.41 85.4541 176.279 85.4541C176.279 85.8458 176.279 86.2375 176.279 86.6293C176.149 86.6293 176.018 86.6293 175.888 86.6293C175.888 87.1515 175.888 87.674 175.888 88.1962C173.671 94.8255 172.832 107.371 175.104 114.834C175.235 116.009 175.365 117.184 175.496 118.36C176.671 121.885 177.846 125.411 179.021 128.936C179.152 128.936 179.283 128.936 179.413 128.936C179.674 129.72 179.935 130.503 180.197 131.287C180.327 131.287 180.458 131.287 180.588 131.287C180.588 131.548 180.588 131.809 180.588 132.07C180.719 132.07 180.85 132.07 180.98 132.07C181.241 132.854 181.502 133.637 181.764 134.421C182.025 134.551 182.286 134.682 182.547 134.812C182.678 135.334 182.808 135.857 182.939 136.379C183.2 136.51 183.461 136.641 183.722 136.771C183.722 137.032 183.722 137.293 183.722 137.554C183.853 137.554 183.984 137.554 184.114 137.554C184.114 137.816 184.114 138.077 184.114 138.338C184.375 138.468 184.636 138.599 184.897 138.73C184.897 138.991 184.897 139.252 184.897 139.513C185.159 139.644 185.42 139.774 185.681 139.905C185.681 140.166 185.681 140.427 185.681 140.688C186.073 140.95 186.464 141.21 186.856 141.472C186.856 141.733 186.856 141.994 186.856 142.255C187.248 142.516 187.64 142.777 188.031 143.039C188.031 143.3 188.031 143.561 188.031 143.822C188.684 144.344 189.337 144.867 189.99 145.389C189.99 145.65 189.99 145.911 189.99 146.173C191.165 147.217 192.34 148.262 193.516 149.306C193.907 149.829 194.299 150.351 194.691 150.873C194.952 150.873 195.213 150.873 195.474 150.873C195.996 151.526 196.519 152.179 197.041 152.832C197.302 152.832 197.563 152.832 197.825 152.832C198.086 153.224 198.347 153.615 198.608 154.007C198.869 154.007 199.13 154.007 199.392 154.007C199.522 154.268 199.653 154.529 199.783 154.791C200.045 154.791 200.305 154.791 200.567 154.791C200.828 155.182 201.089 155.574 201.35 155.966C201.611 155.966 201.872 155.966 202.134 155.966C202.264 156.227 202.395 156.488 202.525 156.749C203.048 156.88 203.57 157.011 204.092 157.141C204.223 157.402 204.354 157.663 204.484 157.924C205.268 158.186 206.051 158.447 206.834 158.708C206.965 158.969 207.096 159.23 207.226 159.491C207.748 159.622 208.271 159.753 208.793 159.883C208.793 160.014 208.793 160.144 208.793 160.275C209.315 160.405 209.838 160.536 210.36 160.667C210.36 160.797 210.36 160.928 210.36 161.058C210.752 161.058 211.143 161.058 211.535 161.058C211.535 161.189 211.535 161.32 211.535 161.45C212.057 161.581 212.58 161.711 213.102 161.842C213.102 161.972 213.102 162.103 213.102 162.234C213.755 162.364 214.408 162.495 215.061 162.625C215.061 162.756 215.061 162.887 215.061 163.017C215.844 163.147 216.628 163.278 217.411 163.409C217.411 163.539 217.411 163.67 217.411 163.8C217.803 163.8 218.195 163.8 218.586 163.8C218.586 163.931 218.586 164.062 218.586 164.192C218.978 164.192 219.37 164.192 219.762 164.192C219.762 164.323 219.762 164.453 219.762 164.584C220.284 164.584 220.806 164.584 221.329 164.584C221.329 164.714 221.329 164.845 221.329 164.976C221.851 164.976 222.373 164.976 222.895 164.976C222.895 165.106 222.895 165.237 222.895 165.367C223.418 165.367 223.94 165.367 224.462 165.367C224.462 165.498 224.462 165.629 224.462 165.759C225.246 165.759 226.029 165.759 226.813 165.759C226.813 165.89 226.813 166.02 226.813 166.151C227.596 166.151 228.38 166.151 229.163 166.151C229.163 166.281 229.163 166.412 229.163 166.543C230.338 166.543 231.514 166.543 232.689 166.543C232.689 166.673 232.689 166.804 232.689 166.934C234.646 167.481 242.996 166.95 244.441 166.543C247.052 166.281 249.664 166.02 252.275 165.759C252.275 165.629 252.275 165.498 252.275 165.367C252.798 165.367 253.32 165.367 253.842 165.367C253.842 165.237 253.842 165.106 253.842 164.976C254.234 164.976 254.626 164.976 255.017 164.976C255.017 164.845 255.017 164.714 255.017 164.584C255.54 164.584 256.062 164.584 256.584 164.584C256.584 164.453 256.584 164.323 256.584 164.192C257.368 164.062 258.151 163.931 258.935 163.8C258.935 163.67 258.935 163.539 258.935 163.409C259.196 163.409 259.457 163.409 259.718 163.409C259.718 163.278 259.718 163.147 259.718 163.017C260.11 163.017 260.502 163.017 260.893 163.017C260.893 162.887 260.893 162.756 260.893 162.625C261.155 162.625 261.416 162.625 261.677 162.625C261.677 162.495 261.677 162.364 261.677 162.234C262.33 162.103 262.983 161.972 263.636 161.842C263.636 161.711 263.636 161.581 263.636 161.45C264.419 161.189 265.202 160.928 265.986 160.667C265.986 160.536 265.986 160.405 265.986 160.275C266.247 160.275 266.508 160.275 266.769 160.275C266.769 160.144 266.769 160.014 266.769 159.883C267.031 159.883 267.292 159.883 267.553 159.883C267.553 159.753 267.553 159.622 267.553 159.491C267.814 159.491 268.075 159.491 268.336 159.491C268.336 159.361 268.336 159.23 268.336 159.1C268.598 159.1 268.859 159.1 269.12 159.1C269.12 158.969 269.12 158.838 269.12 158.708C269.381 158.708 269.642 158.708 269.903 158.708C270.034 158.447 270.165 158.186 270.295 157.924C270.817 157.794 271.34 157.663 271.862 157.533C271.992 157.271 272.123 157.011 272.254 156.749C272.515 156.749 272.776 156.749 273.037 156.749C273.037 156.619 273.037 156.488 273.037 156.358C273.429 156.227 273.821 156.096 274.212 155.966C274.343 155.705 274.474 155.444 274.604 155.182C274.865 155.182 275.126 155.182 275.388 155.182C275.649 154.791 275.91 154.399 276.171 154.007C276.432 154.007 276.693 154.007 276.954 154.007C277.085 153.746 277.216 153.485 277.346 153.224C277.738 153.093 278.13 152.962 278.521 152.832C278.913 152.31 279.305 151.787 279.697 151.265C279.958 151.265 280.219 151.265 280.48 151.265C281.133 150.482 281.786 149.698 282.439 148.915C282.7 148.915 282.961 148.915 283.222 148.915C283.614 148.392 284.006 147.87 284.397 147.348C284.659 147.217 284.92 147.086 285.181 146.956C285.181 146.695 285.181 146.434 285.181 146.173C285.964 145.52 286.748 144.867 287.531 144.214C287.531 143.953 287.531 143.692 287.531 143.43C287.923 143.169 288.315 142.908 288.706 142.647C288.837 142.255 288.968 141.863 289.098 141.472C289.359 141.341 289.62 141.21 289.882 141.08C291.84 137.555 293.799 134.028 295.758 130.503C295.758 130.112 295.758 129.72 295.758 129.328C295.888 129.328 296.019 129.328 296.149 129.328C296.149 129.067 296.149 128.806 296.149 128.545C296.28 128.545 296.411 128.545 296.541 128.545C296.541 128.153 296.541 127.761 296.541 127.369C296.671 127.369 296.802 127.369 296.933 127.369C296.933 127.108 296.933 126.847 296.933 126.586C297.063 126.586 297.194 126.586 297.324 126.586C298.761 121.755 300.197 116.923 301.634 112.092C301.634 111.439 301.634 110.786 301.634 110.133C301.764 110.133 301.895 110.133 302.025 110.133C302.025 109.611 302.025 109.088 302.025 108.566C302.156 108.566 302.287 108.566 302.417 108.566C302.417 108.044 302.417 107.522 302.417 106.999C302.547 106.999 302.678 106.999 302.809 106.999C302.939 105.824 303.07 104.649 303.2 103.474C303.331 103.474 303.462 103.474 303.592 103.474C303.853 101.776 304.114 100.079 304.376 98.3812C304.506 98.3812 304.637 98.3812 304.767 98.3812C304.767 97.7286 304.767 97.0756 304.767 96.4226C304.898 96.4226 305.029 96.4226 305.159 96.4226C305.159 95.9004 305.159 95.3778 305.159 94.8556C305.29 94.8556 305.42 94.8556 305.551 94.8556C305.551 94.3335 305.551 93.8109 305.551 93.2887C305.681 93.2887 305.812 93.2887 305.943 93.2887C305.943 92.6357 305.943 91.9827 305.943 91.3301C306.073 91.3301 306.204 91.3301 306.334 91.3301C306.465 90.1549 306.596 88.9797 306.726 87.8045C306.857 87.8045 306.987 87.8045 307.118 87.8045C307.248 86.6293 307.379 85.4541 307.51 84.2789C307.64 84.2789 307.771 84.2789 307.901 84.2789C308.163 82.712 308.423 81.145 308.685 79.5781C308.815 79.5781 308.946 79.5781 309.076 79.5781C309.207 78.6642 309.338 77.7499 309.468 76.836C309.599 76.836 309.729 76.836 309.86 76.836C309.86 76.4442 309.86 76.0525 309.86 75.6608C309.99 75.6608 310.121 75.6608 310.252 75.6608C310.252 75.2691 310.252 74.8773 310.252 74.4856C310.382 74.4856 310.513 74.4856 310.643 74.4856C311.035 72.7882 311.427 71.0904 311.819 69.3931C311.949 69.3931 312.08 69.3931 312.21 69.3931C312.21 69.1318 312.21 68.8709 312.21 68.6096C312.341 68.6096 312.472 68.6096 312.602 68.6096C312.732 67.8261 312.863 67.0427 312.994 66.2592C313.124 66.2592 313.255 66.2592 313.385 66.2592C313.385 65.9979 313.385 65.737 313.385 65.4758C313.516 65.4758 313.647 65.4758 313.777 65.4758C313.777 65.084 313.777 64.6923 313.777 64.3006C313.908 64.3006 314.039 64.3006 314.169 64.3006C314.299 63.7784 314.43 63.2558 314.561 62.7336C314.691 62.7336 314.822 62.7336 314.952 62.7336C314.952 62.3419 314.952 61.9502 314.952 61.5584C315.083 61.5584 315.214 61.5584 315.344 61.5584C315.605 60.775 315.866 59.9915 316.128 59.208C316.258 59.208 316.389 59.208 316.519 59.208C316.519 58.9468 316.519 58.6859 316.519 58.4246C316.65 58.4246 316.781 58.4246 316.911 58.4246C316.911 58.1633 316.911 57.9024 316.911 57.6411C317.042 57.6411 317.172 57.6411 317.303 57.6411C317.303 57.3798 317.303 57.1189 317.303 56.8577C317.433 56.8577 317.564 56.8577 317.695 56.8577C317.695 56.5964 317.695 56.3355 317.695 56.0742C317.825 56.0742 317.956 56.0742 318.086 56.0742C318.086 55.8129 318.086 55.552 318.086 55.2907C318.217 55.2907 318.348 55.2907 318.478 55.2907C318.478 55.0294 318.478 54.7685 318.478 54.5073C318.608 54.5073 318.739 54.5073 318.87 54.5073C318.87 54.246 318.87 53.9851 318.87 53.7238C319.131 53.5934 319.392 53.4625 319.653 53.3321C319.915 52.5486 320.175 51.7651 320.437 50.9817C320.567 50.9817 320.698 50.9817 320.828 50.9817C320.959 50.5899 321.09 50.1982 321.22 49.8065C321.481 49.676 321.742 49.5452 322.004 49.4147C322.134 48.8926 322.265 48.37 322.395 47.8478C322.526 47.8478 322.657 47.8478 322.787 47.8478C322.918 47.4561 323.048 47.0644 323.179 46.6726C323.44 46.5422 323.701 46.4113 323.962 46.2809C323.962 46.0196 323.962 45.7587 323.962 45.4974C324.354 45.2361 324.746 44.9752 325.137 44.714C325.137 44.4527 325.137 44.1918 325.137 43.9305C325.399 43.8001 325.66 43.6692 325.921 43.5388C325.921 43.2775 325.921 43.0166 325.921 42.7553C326.443 42.3636 326.966 41.9718 327.488 41.5801C327.488 41.3188 327.488 41.0579 327.488 40.7966C328.01 40.4049 328.533 40.0132 329.055 39.6214C329.055 39.3602 329.055 39.0993 329.055 38.838C329.707 38.3158 330.36 37.7932 331.013 37.2711C331.013 37.0098 331.013 36.7489 331.013 36.4876C333.233 34.3985 335.453 32.309 337.673 30.2199C339.501 28.2616 341.329 26.3026 343.157 24.3439C343.418 24.3439 343.679 24.3439 343.941 24.3439C344.463 23.6913 344.985 23.0379 345.508 22.3852C345.769 22.3852 346.03 22.3852 346.291 22.3852C346.683 21.8631 347.074 21.3405 347.466 20.8183C347.727 20.8183 347.988 20.8183 348.25 20.8183C348.641 20.2961 349.033 19.7736 349.425 19.2514C349.686 19.2514 349.947 19.2514 350.208 19.2514C350.339 18.9901 350.47 18.7292 350.6 18.4679C350.861 18.4679 351.122 18.4679 351.384 18.4679C351.645 18.0762 351.906 17.6845 352.167 17.2927C352.428 17.2927 352.689 17.2927 352.95 17.2927C353.081 17.0314 353.212 16.7706 353.342 16.5093C353.734 16.3788 354.126 16.248 354.517 16.1175C354.517 15.9871 354.517 15.8563 354.517 15.7258C354.779 15.7258 355.04 15.7258 355.301 15.7258C355.431 15.4645 355.562 15.2036 355.693 14.9423C356.215 14.8119 356.737 14.6811 357.259 14.5506C357.39 14.2893 357.521 14.0284 357.651 13.7671C358.435 13.5059 359.218 13.245 360.002 12.9837C360.132 12.7224 360.263 12.4615 360.393 12.2002C360.655 12.2002 360.916 12.2002 361.177 12.2002C361.177 12.0698 361.177 11.9389 361.177 11.8085C361.438 11.8085 361.699 11.8085 361.96 11.8085C361.96 11.678 361.96 11.5472 361.96 11.4168C362.222 11.4168 362.482 11.4168 362.744 11.4168C362.744 11.2863 362.744 11.1555 362.744 11.025C363.005 11.025 363.266 11.025 363.527 11.025C363.527 10.8946 363.527 10.7637 363.527 10.6333C363.788 10.6333 364.049 10.6333 364.311 10.6333C364.311 10.5028 364.311 10.372 364.311 10.2416C365.094 9.98027 365.878 9.71938 366.661 9.4581C366.661 9.32765 366.661 9.19681 366.661 9.06636C367.053 9.06636 367.445 9.06636 367.836 9.06636C367.836 8.93592 367.836 8.80508 367.836 8.67463C368.098 8.67463 368.358 8.67463 368.62 8.67463C368.62 8.54418 368.62 8.41335 368.62 8.2829C369.011 8.2829 369.403 8.2829 369.795 8.2829C369.795 8.15245 369.795 8.02162 369.795 7.89117C370.317 7.76072 370.84 7.62988 371.362 7.49944C371.362 7.36899 371.362 7.23815 371.362 7.1077C372.145 6.97726 372.929 6.84642 373.712 6.71597C373.712 6.58553 373.712 6.45469 373.712 6.32424C373.974 6.32424 374.234 6.32424 374.496 6.32424C374.496 6.19379 374.496 6.06296 374.496 5.93251C375.671 5.67122 376.846 5.41033 378.021 5.14905C378.021 5.0186 378.021 4.88776 378.021 4.75731C378.543 4.75731 379.066 4.75731 379.588 4.75731C379.588 4.62687 379.588 4.49603 379.588 4.36558C379.98 4.36558 380.372 4.36558 380.763 4.36558C380.763 4.23514 380.763 4.1043 380.763 3.97385C381.286 3.97385 381.808 3.97385 382.33 3.97385C390.69 1.0198 400.794 0.0584897 412.102 0.056531C415.888 0.056531 419.676 0.056531 423.462 0.056531C423.462 0.186978 423.462 0.317816 423.462 0.448263C424.768 0.448263 426.074 0.448263 427.379 0.448263C427.379 0.57871 427.379 0.709548 427.379 0.839995C428.424 0.839995 429.469 0.839995 430.513 0.839995C430.513 0.970441 430.513 1.10128 430.513 1.23173C431.427 1.23173 432.342 1.23173 433.255 1.23173C433.255 1.36217 433.255 1.49301 433.255 1.62346C434.039 1.62346 434.822 1.62346 435.606 1.62346C435.606 1.75391 435.606 1.88474 435.606 2.01519C436.258 2.01519 436.912 2.01519 437.565 2.01519C437.565 2.14564 437.565 2.27648 437.565 2.40692C438.217 2.40692 438.871 2.40692 439.523 2.40692C439.523 2.53737 439.523 2.66821 439.523 2.79865C440.045 2.79865 440.568 2.79865 441.09 2.79865C441.09 2.9291 441.09 3.05994 441.09 3.19039C441.743 3.19039 442.396 3.19039 443.049 3.19039C445.79 4.1043 448.533 5.0186 451.275 5.93251C451.275 6.06296 451.275 6.19379 451.275 6.32424C451.536 6.32424 451.797 6.32424 452.059 6.32424C452.059 6.45469 452.059 6.58553 452.059 6.71597C452.45 6.71597 452.842 6.71597 453.234 6.71597C453.234 6.84642 453.234 6.97726 453.234 7.1077C453.495 7.1077 453.756 7.1077 454.017 7.1077C454.017 7.23815 454.017 7.36899 454.017 7.49944C454.409 7.49944 454.801 7.49944 455.192 7.49944C455.192 7.62988 455.192 7.76072 455.192 7.89117C455.976 8.15245 456.759 8.41335 457.543 8.67463C457.543 8.80508 457.543 8.93592 457.543 9.06636C457.804 9.06636 458.065 9.06636 458.326 9.06636C458.326 9.19681 458.326 9.32765 458.326 9.4581C458.718 9.4581 459.11 9.4581 459.501 9.4581C459.501 9.58854 459.501 9.71938 459.501 9.84983C460.024 9.98027 460.546 10.1111 461.068 10.2416C461.068 10.372 461.068 10.5028 461.068 10.6333C461.591 10.7637 462.113 10.8946 462.635 11.025C462.766 11.2863 462.897 11.5472 463.027 11.8085C463.288 11.8085 463.549 11.8085 463.811 11.8085C463.811 11.9389 463.811 12.0698 463.811 12.2002C464.072 12.2002 464.333 12.2002 464.594 12.2002C464.594 12.3307 464.594 12.4615 464.594 12.592C464.855 12.592 465.116 12.592 465.377 12.592C465.377 12.7224 465.377 12.8532 465.377 12.9837C465.639 12.9837 465.9 12.9837 466.161 12.9837C466.291 13.245 466.422 13.5059 466.553 13.7671C467.075 13.8976 467.597 14.0284 468.12 14.1589C468.25 14.4202 468.381 14.6811 468.511 14.9423C469.034 15.0728 469.556 15.2036 470.078 15.3341C470.209 15.5954 470.34 15.8563 470.47 16.1175C470.731 16.1175 470.992 16.1175 471.253 16.1175C471.384 16.3788 471.515 16.6397 471.645 16.901C472.167 17.1623 472.69 17.4232 473.212 17.6845C466.031 29.3048 458.848 40.9283 451.667 52.5486C450.492 51.896 449.316 51.243 448.141 50.5899C448.011 50.3287 447.88 50.0678 447.75 49.8065C447.488 49.8065 447.227 49.8065 446.966 49.8065C446.836 49.5452 446.705 49.2843 446.574 49.023C445.791 48.7617 445.007 48.5008 444.224 48.2395C444.094 47.9783 443.963 47.7174 443.832 47.4561C443.31 47.3256 442.787 47.1948 442.265 47.0644C442.265 46.9339 442.265 46.8031 442.265 46.6726C442.004 46.6726 441.743 46.6726 441.482 46.6726C441.482 46.5422 441.482 46.4113 441.482 46.2809C440.698 46.0196 439.915 45.7587 439.131 45.4974C439.131 45.367 439.131 45.2361 439.131 45.1057C438.74 45.1057 438.348 45.1057 437.956 45.1057C437.956 44.9752 437.956 44.8444 437.956 44.714C437.695 44.714 437.434 44.714 437.173 44.714C437.173 44.5835 437.173 44.4527 437.173 44.3222C433.386 43.147 429.599 41.9718 425.813 40.7966C425.16 40.7966 424.507 40.7966 423.854 40.7966C423.854 40.6662 423.854 40.5354 423.854 40.4049C422.94 40.4049 422.026 40.4049 421.112 40.4049C421.112 40.2745 421.112 40.1436 421.112 40.0132C420.067 40.0132 419.022 40.0132 417.978 40.0132C417.978 39.8827 417.978 39.7519 417.978 39.6214C416.063 39.084 408.02 39.6175 406.618 40.0132C405.573 40.0132 404.528 40.0132 403.484 40.0132C403.484 40.1436 403.484 40.2745 403.484 40.4049C402.831 40.4049 402.178 40.4049 401.525 40.4049C401.525 40.5354 401.525 40.6662 401.525 40.7966C400.873 40.7966 400.219 40.7966 399.567 40.7966C399.567 40.9271 399.567 41.0579 399.567 41.1884C399.044 41.1884 398.522 41.1884 398 41.1884C398 41.3188 398 41.4497 398 41.5801C397.477 41.5801 396.955 41.5801 396.433 41.5801C396.433 41.7106 396.433 41.8414 396.433 41.9718C395.91 41.9718 395.388 41.9718 394.866 41.9718C394.866 42.1023 394.866 42.2331 394.866 42.3636C394.474 42.3636 394.082 42.3636 393.691 42.3636C393.691 42.494 393.691 42.6249 393.691 42.7553C393.299 42.7553 392.907 42.7553 392.515 42.7553C392.515 42.8857 392.515 43.0166 392.515 43.147C392.254 43.147 391.993 43.147 391.732 43.147C391.732 43.2775 391.732 43.4083 391.732 43.5388C390.948 43.6692 390.165 43.8001 389.382 43.9305C389.382 44.0609 389.382 44.1918 389.382 44.3222C388.859 44.4527 388.337 44.5835 387.815 44.714C387.815 44.8444 387.815 44.9752 387.815 45.1057C387.423 45.1057 387.031 45.1057 386.639 45.1057C386.639 45.2361 386.639 45.367 386.639 45.4974C385.856 45.7587 385.072 46.0196 384.289 46.2809C384.289 46.4113 384.289 46.5422 384.289 46.6726C383.767 46.8031 383.244 46.9339 382.722 47.0644C382.592 47.3256 382.461 47.5865 382.33 47.8478C381.547 48.1091 380.763 48.37 379.98 48.6313C379.98 48.7617 379.98 48.8926 379.98 49.023C379.588 49.1535 379.196 49.2843 378.805 49.4147C378.674 49.676 378.543 49.9369 378.413 50.1982C378.152 50.1982 377.891 50.1982 377.63 50.1982C377.63 50.3287 377.63 50.4595 377.63 50.5899C377.238 50.7204 376.846 50.8512 376.454 50.9817C376.324 51.243 376.193 51.5039 376.063 51.7651C375.801 51.7651 375.54 51.7651 375.279 51.7651C375.149 52.0264 375.018 52.2873 374.887 52.5486C374.496 52.6791 374.104 52.8099 373.712 52.9403C373.32 53.4625 372.929 53.9851 372.537 54.5073C372.276 54.5073 372.015 54.5073 371.754 54.5073C371.101 55.2907 370.448 56.0742 369.795 56.8577C369.534 56.8577 369.273 56.8577 369.011 56.8577C368.228 57.7716 367.445 58.6859 366.661 59.5998C366.269 59.8611 365.878 60.122 365.486 60.3832C365.486 60.6445 365.486 60.9054 365.486 61.1667C364.702 61.8193 363.919 62.4723 363.135 63.1254C363.005 63.5171 362.874 63.9088 362.744 64.3006C362.352 64.5618 361.96 64.8227 361.569 65.084C361.569 65.3453 361.569 65.6062 361.569 65.8675C361.307 65.9979 361.046 66.1288 360.785 66.2592C360.785 66.5205 360.785 66.7814 360.785 67.0427C360.524 67.1731 360.263 67.304 360.002 67.4344C360.002 67.6957 360.002 67.9566 360.002 68.2179C359.74 68.3483 359.479 68.4792 359.218 68.6096C359.218 68.8709 359.218 69.1318 359.218 69.3931C358.957 69.5235 358.696 69.6544 358.435 69.7848C358.304 70.307 358.173 70.8296 358.043 71.3517C357.782 71.4822 357.521 71.613 357.259 71.7435C357.129 72.2656 356.998 72.7882 356.868 73.3104C356.737 73.3104 356.606 73.3104 356.476 73.3104C356.476 73.5717 356.476 73.8326 356.476 74.0939C356.346 74.0939 356.215 74.0939 356.084 74.0939C355.823 74.8773 355.562 75.6608 355.301 76.4442C355.17 76.4442 355.04 76.4442 354.909 76.4442C354.909 76.836 354.909 77.2277 354.909 77.6194C354.779 77.6194 354.648 77.6194 354.517 77.6194C354.387 78.1416 354.256 78.6642 354.126 79.1864C353.995 79.1864 353.864 79.1864 353.734 79.1864C353.603 79.9698 353.473 80.7533 353.342 81.5368C353.212 81.5368 353.081 81.5368 352.95 81.5368C352.95 81.9285 352.95 82.3202 352.95 82.712C352.82 82.712 352.689 82.712 352.559 82.712C352.559 83.1037 352.559 83.4954 352.559 83.8872C352.428 83.8872 352.297 83.8872 352.167 83.8872C352.167 84.2789 352.167 84.6706 352.167 85.0623C352.037 85.0623 351.906 85.0623 351.775 85.0623C351.775 85.5845 351.775 86.1071 351.775 86.6293C351.645 86.6293 351.514 86.6293 351.384 86.6293C351.384 87.1515 351.384 87.674 351.384 88.1962C351.253 88.1962 351.122 88.1962 350.992 88.1962C350.992 88.8488 350.992 89.5018 350.992 90.1549C350.861 90.1549 350.73 90.1549 350.6 90.1549C350.6 90.8079 350.6 91.4609 350.6 92.1135C350.47 92.1135 350.339 92.1135 350.208 92.1135C350.208 93.0274 350.208 93.9417 350.208 94.8556C350.078 94.8556 349.947 94.8556 349.817 94.8556C349.817 96.2917 349.817 97.7286 349.817 99.1647C349.686 99.1647 349.555 99.1647 349.425 99.1647C348.919 100.981 349.465 105.746 349.817 106.999C349.817 108.435 349.817 109.872 349.817 111.308C349.947 111.308 350.078 111.308 350.208 111.308C350.208 112.222 350.208 113.137 350.208 114.051C350.339 114.051 350.47 114.051 350.6 114.051C350.6 114.834 350.6 115.617 350.6 116.401C350.73 116.401 350.861 116.401 350.992 116.401C350.992 117.054 350.992 117.707 350.992 118.36C351.122 118.36 351.253 118.36 351.384 118.36C351.384 118.882 351.384 119.404 351.384 119.926C351.514 119.926 351.645 119.926 351.775 119.926C351.775 120.449 351.775 120.971 351.775 121.493C351.906 121.493 352.037 121.493 352.167 121.493C352.167 121.885 352.167 122.277 352.167 122.669C352.297 122.669 352.428 122.669 352.559 122.669C352.559 123.191 352.559 123.713 352.559 124.236C352.689 124.236 352.82 124.236 352.95 124.236C352.95 124.627 352.95 125.019 352.95 125.411C353.081 125.411 353.212 125.411 353.342 125.411C353.342 125.672 353.342 125.933 353.342 126.194C353.473 126.194 353.603 126.194 353.734 126.194C353.864 126.978 353.995 127.761 354.126 128.545C354.256 128.545 354.387 128.545 354.517 128.545C354.517 128.806 354.517 129.067 354.517 129.328C354.648 129.328 354.779 129.328 354.909 129.328C354.909 129.72 354.909 130.112 354.909 130.503C355.04 130.503 355.17 130.503 355.301 130.503C355.562 131.287 355.823 132.07 356.084 132.854C356.215 132.854 356.346 132.854 356.476 132.854C356.476 133.115 356.476 133.376 356.476 133.637C356.606 133.637 356.737 133.637 356.868 133.637C357.129 134.421 357.39 135.204 357.651 135.987C357.913 136.118 358.173 136.249 358.435 136.379C358.565 136.901 358.696 137.424 358.826 137.946C358.957 137.946 359.088 137.946 359.218 137.946C359.349 138.338 359.479 138.73 359.61 139.121C359.871 139.252 360.132 139.383 360.393 139.513C360.393 139.774 360.393 140.035 360.393 140.297C360.655 140.427 360.916 140.558 361.177 140.688C361.177 140.95 361.177 141.21 361.177 141.472C361.569 141.733 361.96 141.994 362.352 142.255C362.352 142.516 362.352 142.777 362.352 143.039C362.744 143.3 363.135 143.561 363.527 143.822C363.527 144.083 363.527 144.344 363.527 144.606C364.702 145.65 365.878 146.695 367.053 147.739C367.183 148.131 367.314 148.523 367.445 148.915C367.706 148.915 367.967 148.915 368.228 148.915C369.403 150.22 370.578 151.526 371.754 152.832C372.015 152.832 372.276 152.832 372.537 152.832C372.929 153.354 373.32 153.877 373.712 154.399C373.974 154.399 374.234 154.399 374.496 154.399C374.757 154.791 375.018 155.182 375.279 155.574C375.54 155.574 375.801 155.574 376.063 155.574C376.193 155.835 376.324 156.096 376.454 156.358C376.846 156.488 377.238 156.619 377.63 156.749C377.63 156.88 377.63 157.011 377.63 157.141C377.891 157.141 378.152 157.141 378.413 157.141C378.543 157.402 378.674 157.663 378.805 157.924C379.066 157.924 379.327 157.924 379.588 157.924C379.719 158.186 379.849 158.447 379.98 158.708C380.502 158.838 381.025 158.969 381.547 159.1C381.677 159.361 381.808 159.622 381.939 159.883C382.722 160.144 383.506 160.405 384.289 160.667C384.289 160.797 384.289 160.928 384.289 161.058C384.55 161.058 384.811 161.058 385.072 161.058C385.072 161.189 385.072 161.32 385.072 161.45C385.334 161.45 385.595 161.45 385.856 161.45C385.856 161.581 385.856 161.711 385.856 161.842C386.639 162.103 387.423 162.364 388.206 162.625C388.206 162.756 388.206 162.887 388.206 163.017C388.598 163.017 388.99 163.017 389.382 163.017C389.382 163.147 389.382 163.278 389.382 163.409C389.643 163.409 389.904 163.409 390.165 163.409C390.165 163.539 390.165 163.67 390.165 163.8C390.948 163.931 391.732 164.062 392.515 164.192C392.515 164.323 392.515 164.453 392.515 164.584C392.907 164.584 393.299 164.584 393.691 164.584C393.691 164.714 393.691 164.845 393.691 164.976C394.082 164.976 394.474 164.976 394.866 164.976C394.866 165.106 394.866 165.237 394.866 165.367C395.257 165.367 395.649 165.367 396.041 165.367C396.041 165.498 396.041 165.629 396.041 165.759C396.563 165.759 397.086 165.759 397.608 165.759C403.879 167.857 414.918 168.659 421.895 166.543C422.548 166.543 423.201 166.543 423.854 166.543C426.596 165.759 429.339 164.976 432.08 164.192C432.08 164.062 432.08 163.931 432.08 163.8C432.342 163.8 432.602 163.8 432.864 163.8C432.864 163.67 432.864 163.539 432.864 163.409C433.255 163.409 433.647 163.409 434.039 163.409C434.039 163.278 434.039 163.147 434.039 163.017C434.822 162.756 435.606 162.495 436.389 162.234C436.389 162.103 436.389 161.972 436.389 161.842C436.651 161.842 436.911 161.842 437.173 161.842C437.173 161.711 437.173 161.581 437.173 161.45C437.434 161.45 437.695 161.45 437.956 161.45C437.956 161.32 437.956 161.189 437.956 161.058C438.74 160.797 439.523 160.536 440.307 160.275C440.437 160.014 440.568 159.753 440.698 159.491C441.221 159.361 441.743 159.23 442.265 159.1C442.396 158.838 442.527 158.577 442.657 158.316C442.918 158.316 443.179 158.316 443.44 158.316C443.44 158.186 443.44 158.055 443.44 157.924C443.832 157.794 444.224 157.663 444.616 157.533C444.746 157.271 444.877 157.011 445.007 156.749C445.269 156.749 445.53 156.749 445.791 156.749C445.921 156.488 446.052 156.227 446.183 155.966C446.574 155.835 446.966 155.705 447.358 155.574C447.88 154.921 448.403 154.268 448.925 153.615C449.186 153.615 449.447 153.615 449.708 153.615C450.883 152.31 452.059 151.004 453.234 149.698C453.887 149.176 454.539 148.653 455.192 148.131C455.192 147.87 455.192 147.609 455.192 147.348C455.845 146.826 456.498 146.303 457.151 145.781C457.282 145.389 457.412 144.997 457.543 144.606C457.804 144.475 458.065 144.344 458.326 144.214C458.326 143.953 458.326 143.692 458.326 143.43C458.588 143.3 458.848 143.169 459.11 143.039C459.24 142.647 459.371 142.255 459.501 141.863C459.632 141.863 459.763 141.863 459.893 141.863C459.893 141.602 459.893 141.341 459.893 141.08C460.155 140.95 460.415 140.819 460.677 140.688C460.807 140.166 460.938 139.644 461.068 139.121C461.33 138.991 461.591 138.86 461.852 138.73C461.852 138.468 461.852 138.207 461.852 137.946C461.982 137.946 462.113 137.946 462.244 137.946C462.244 137.685 462.244 137.424 462.244 137.163C462.374 137.163 462.505 137.163 462.635 137.163C462.635 136.901 462.635 136.641 462.635 136.379C462.766 136.379 462.897 136.379 463.027 136.379C463.027 136.118 463.027 135.857 463.027 135.596C463.158 135.596 463.288 135.596 463.419 135.596C463.419 135.334 463.419 135.074 463.419 134.812C463.549 134.812 463.68 134.812 463.811 134.812C464.202 133.637 464.594 132.462 464.986 131.287C465.863 129.287 467.076 127.376 467.336 124.627ZM43.0905 40.7966C43.0905 55.2892 43.0905 69.7864 43.0905 84.2789C55.7552 84.2789 68.4238 84.2789 81.0885 84.2789C87.8102 84.2789 96.3794 84.7752 101.067 82.712C101.067 82.5815 101.067 82.4507 101.067 82.3202C101.328 82.3202 101.589 82.3202 101.85 82.3202C101.85 82.1898 101.85 82.0589 101.85 81.9285C102.372 81.798 102.895 81.6672 103.417 81.5368C103.548 81.2755 103.679 81.0146 103.809 80.7533C104.07 80.7533 104.331 80.7533 104.592 80.7533C104.723 80.492 104.854 80.2311 104.984 79.9698C105.245 79.9698 105.506 79.9698 105.768 79.9698C106.682 78.9255 107.596 77.8803 108.51 76.836C108.901 76.5747 109.293 76.3138 109.685 76.0525C109.685 75.7912 109.685 75.5303 109.685 75.2691C110.077 75.0078 110.468 74.7469 110.86 74.4856C110.86 74.2243 110.86 73.9634 110.86 73.7021C111.121 73.5717 111.382 73.4408 111.644 73.3104C112.427 70.9604 113.211 68.6092 113.994 66.2592C114.735 63.6789 113.474 56.0307 112.819 54.5073C112.688 54.5073 112.557 54.5073 112.427 54.5073C112.427 54.246 112.427 53.9851 112.427 53.7238C112.297 53.7238 112.166 53.7238 112.035 53.7238C112.035 53.3321 112.035 52.9403 112.035 52.5486C111.774 52.4182 111.513 52.2873 111.252 52.1569C111.121 51.6347 110.991 51.1121 110.86 50.5899C110.468 50.3287 110.077 50.0678 109.685 49.8065C109.685 49.5452 109.685 49.2843 109.685 49.023C109.554 49.023 109.424 49.023 109.293 49.023C108.901 48.5008 108.51 47.9783 108.118 47.4561C107.857 47.4561 107.596 47.4561 107.335 47.4561C106.682 46.6726 106.029 45.8892 105.376 45.1057C105.115 45.1057 104.854 45.1057 104.592 45.1057C104.462 44.8444 104.331 44.5835 104.201 44.3222C102.112 43.4083 100.022 42.494 97.933 41.5801C96.2356 41.4497 94.5378 41.3188 92.8405 41.1884C89.4579 40.2439 83.9846 40.7966 79.9133 40.7966C67.6403 40.7966 55.3635 40.7966 43.0905 40.7966ZM43.0905 121.102C43.0905 135.986 43.0905 150.875 43.0905 165.759C57.7139 165.759 72.3411 165.759 86.9645 165.759C91.7573 165.759 99.0396 166.493 103.025 165.367C104.853 165.237 106.682 165.106 108.51 164.976C108.51 164.845 108.51 164.714 108.51 164.584C108.901 164.584 109.293 164.584 109.685 164.584C109.685 164.453 109.685 164.323 109.685 164.192C110.077 164.192 110.468 164.192 110.86 164.192C110.86 164.062 110.86 163.931 110.86 163.8C111.252 163.8 111.644 163.8 112.035 163.8C112.035 163.67 112.035 163.539 112.035 163.409C112.297 163.409 112.557 163.409 112.819 163.409C112.819 163.278 112.819 163.147 112.819 163.017C113.08 163.017 113.341 163.017 113.602 163.017C113.733 162.756 113.864 162.495 113.994 162.234C114.516 162.103 115.039 161.972 115.561 161.842C115.822 161.45 116.083 161.058 116.344 160.667C116.606 160.667 116.867 160.667 117.128 160.667C117.258 160.405 117.389 160.144 117.52 159.883C118.303 159.23 119.086 158.577 119.87 157.924C119.87 157.663 119.87 157.402 119.87 157.141C120.392 156.749 120.915 156.358 121.437 155.966C121.437 155.705 121.437 155.444 121.437 155.182C121.698 155.052 121.959 154.921 122.22 154.791C123.134 152.702 124.049 150.612 124.962 148.523C124.962 147.87 124.962 147.217 124.962 146.564C125.093 146.564 125.224 146.564 125.354 146.564C125.354 144.214 125.354 141.863 125.354 139.513C122.932 131.457 118.147 125.436 110.86 122.277C106.265 120.285 95.8478 121.102 89.3149 121.102C73.9084 121.102 58.4969 121.102 43.0905 121.102Z" fill="white"/>
</svg>
