<svg width="1284" height="337" viewBox="0 0 1284 337" fill="none" xmlns="http://www.w3.org/2000/svg">
<path fill-rule="evenodd" clip-rule="evenodd" d="M719.057 0C714.626 0 711.034 3.59237 711.034 8.0238V328.976C711.034 333.408 714.626 337 719.057 337C723.489 337 727.081 333.408 727.081 328.976V8.02381C727.081 3.59238 723.489 0 719.057 0ZM589.071 197.21H511.055C511.137 196.963 511.219 196.716 511.302 196.469C511.384 196.223 511.466 195.976 511.549 195.729H512.042V194.741C512.372 194.577 512.701 194.412 513.03 194.247L513.277 193.26L513.524 192.272C513.853 192.108 514.182 191.943 514.511 191.779V190.791C514.676 190.709 514.841 190.626 515.005 190.544C515.17 190.462 515.334 190.379 515.499 190.297L515.755 189.53L515.993 188.816H516.486L516.732 187.834L516.98 186.841H517.474C517.638 186.347 517.803 185.853 517.968 185.36C518.297 185.195 518.626 185.03 518.955 184.866V183.878H519.449V182.891C519.778 182.726 520.107 182.561 520.437 182.397V181.409C520.601 181.327 520.766 181.245 520.93 181.162C521.095 181.08 521.26 180.998 521.424 180.916C521.589 180.257 521.754 179.599 521.918 178.941H522.412L522.659 178.2L522.906 177.459C523.071 177.377 523.237 177.294 523.402 177.211L523.468 177.178L523.893 176.965V175.978C524.058 175.896 524.222 175.813 524.387 175.731L524.644 175.602L524.881 175.484C524.95 175.208 525.019 174.932 525.088 174.656L525.145 174.426L525.374 173.509C525.539 173.427 525.704 173.344 525.868 173.262L525.93 173.231C526.074 173.159 526.218 173.087 526.362 173.015V172.028C526.691 171.863 527.02 171.698 527.349 171.534V170.546C527.514 170.464 527.679 170.382 527.843 170.299L528.097 170.173L528.337 170.053V169.065C528.502 168.983 528.666 168.9 528.831 168.818L529.099 168.684L529.325 168.571C529.489 167.913 529.654 167.254 529.818 166.596C530.148 166.432 530.477 166.267 530.806 166.102V165.115L531.228 164.904C531.416 164.81 531.605 164.715 531.793 164.621V163.634C532.123 163.469 532.452 163.304 532.781 163.14V162.152H533.275C533.439 161.658 533.604 161.165 533.768 160.671L533.904 160.603L534.262 160.424C534.427 160.342 534.591 160.259 534.756 160.177V159.19C535.085 159.025 535.414 158.86 535.744 158.696V157.708C535.908 157.626 536.073 157.544 536.237 157.461C536.402 157.379 536.566 157.297 536.731 157.214L536.978 156.474L537.225 155.733H537.719L537.964 154.751L538.212 153.758H538.706C538.788 153.511 538.871 153.264 538.953 153.017C539.035 152.771 539.118 152.524 539.2 152.277C539.529 152.112 539.858 151.947 540.188 151.783V150.795C540.517 150.631 540.846 150.466 541.175 150.302C541.34 149.808 541.504 149.314 541.669 148.82H643.88C643.967 149.95 644.054 151.081 644.141 152.211L644.374 155.239H644.867V163.14H645.361V171.534C645.361 171.894 645.362 172.254 645.362 172.615C645.363 172.993 645.364 173.372 645.365 173.75C645.384 180.484 645.402 187.109 643.88 192.272L643.386 196.223L642.892 200.173L637.955 216.961H637.461V217.949H636.967V219.43H636.473L636.254 220.527L635.979 221.899H635.486V222.886H634.992V224.368H634.498C634.334 224.859 634.171 225.35 634.007 225.841C633.842 226.338 633.676 226.834 633.511 227.33H633.017V228.318H632.523V229.305H632.029V230.293H631.536V231.28H631.042V232.268H630.548V233.256H630.054V234.243H629.56V235.231H629.067V236.218C628.737 236.383 628.408 236.548 628.079 236.712L627.832 237.699L627.585 238.687C627.256 238.851 626.927 239.016 626.598 239.181L626.35 240.174L626.104 241.156C625.941 241.237 625.778 241.319 625.615 241.4C625.449 241.483 625.283 241.567 625.116 241.65V242.637C624.939 242.726 624.761 242.815 624.584 242.904C624.432 242.979 624.281 243.055 624.129 243.131V244.119C624.015 244.176 623.9 244.233 623.786 244.29L623.635 244.365C623.471 244.448 623.306 244.53 623.141 244.612V245.6C622.812 245.764 622.483 245.929 622.154 246.094V247.081C621.989 247.163 621.825 247.246 621.66 247.328C621.496 247.41 621.331 247.493 621.166 247.575V248.562L620.862 248.715L620.673 248.809C620.508 248.892 620.343 248.974 620.179 249.056L619.932 249.797L619.685 250.538L618.944 251.031L618.204 251.525V252.513L616.229 253.994V254.982L614.253 256.463V257.45C613.513 258.109 612.772 258.767 612.031 259.425C611.291 260.084 610.55 260.742 609.81 261.401V262.388L605.859 265.845L605.392 266.546C605.218 266.806 605.045 267.066 604.872 267.326H603.884C602.568 268.807 601.25 270.288 599.934 271.77H598.947C598.415 272.435 597.883 273.1 597.351 273.764L596.971 274.239H595.984L595.49 274.979L594.996 275.72C594.503 275.884 594.009 276.049 593.515 276.214C593.433 276.378 593.35 276.543 593.268 276.708C593.186 276.872 593.103 277.037 593.021 277.201H592.034L591.593 277.862L591.046 278.683H590.059L589.924 278.952L589.812 279.176C589.729 279.341 589.647 279.505 589.565 279.67C589.071 279.835 588.577 280 588.083 280.164V280.658H587.096C586.932 280.987 586.767 281.316 586.602 281.645H585.615C585.543 281.789 585.471 281.933 585.399 282.077L585.31 282.254L585.121 282.633L584.396 282.874L583.64 283.127V283.62L582.652 283.867L581.664 284.114L581.523 284.396L581.418 284.608C581.335 284.772 581.253 284.937 581.171 285.102H580.183V285.595H579.196V286.089H578.208V286.583H577.221V287.077H576.233C576.151 287.241 576.068 287.406 575.986 287.571C575.904 287.735 575.821 287.9 575.739 288.064L571.295 289.546V290.039H570.308V290.533C569.649 290.698 568.991 290.863 568.333 291.027V291.521L565.864 292.014V292.508H564.876V293.002H563.395V293.496H561.914V293.99H560.926V294.483C559.938 294.648 558.951 294.813 557.963 294.977C546.765 299.38 533.541 301.394 517.968 301.396C515.17 301.314 512.372 301.232 509.574 301.149C506.775 301.067 503.977 300.985 501.179 300.902V300.409H497.229V299.915H493.773C490.562 299.154 487.351 298.394 484.14 297.633L475.01 295.471V294.977C473.528 294.648 472.047 294.319 470.566 293.99V293.496H469.578V293.002L468.097 292.755L466.615 292.508V292.014H465.628V291.521H464.147V291.027H463.159V290.533C462.698 290.441 462.238 290.349 461.778 290.257L460.69 290.039V289.546L459.209 289.052L457.727 288.558V288.064H456.74V287.571H455.752V287.077H454.765V286.583H453.777V286.089H452.79V285.595H451.802V285.102H450.815C450.732 284.937 450.65 284.772 450.568 284.608C450.485 284.443 450.403 284.279 450.321 284.114L448.84 283.62L447.358 283.127V282.633C446.864 282.468 446.371 282.303 445.877 282.139C445.786 281.957 445.695 281.776 445.604 281.594L445.383 281.151C444.725 280.987 444.066 280.822 443.408 280.658C443.326 280.493 443.243 280.328 443.161 280.164C443.079 279.999 442.996 279.835 442.914 279.67H441.927C441.762 279.341 441.597 279.012 441.433 278.683H440.445L439.952 277.942L439.458 277.201H438.47C438.306 276.954 438.141 276.708 437.977 276.461C437.812 276.214 437.647 275.967 437.483 275.72H436.495L436.001 274.979L435.508 274.239H434.52L433.039 272.264H432.051C431.228 271.276 430.405 270.288 429.582 269.301H428.595L423.657 263.869L418.226 258.932V257.944C417.238 257.121 416.251 256.298 415.263 255.475V254.488L413.288 253.006V252.019L412.405 251.43L411.807 251.031V250.044C411.313 249.714 410.819 249.386 410.325 249.056V248.069L409.585 247.575L408.844 247.081L408.596 246.337L408.35 245.6H407.363C407.062 246.699 406.954 246.84 406.375 247.575H405.881V248.562C405.717 248.645 405.552 248.727 405.388 248.809C405.223 248.892 405.058 248.974 404.894 249.056V250.044L404.153 250.538L403.412 251.031V252.019C402.919 252.348 402.425 252.677 401.931 253.006V253.994L399.956 255.475V256.463C398.969 257.285 397.981 258.109 396.993 258.932V259.919C396.006 260.824 395.018 261.73 394.031 262.635L392.095 264.409L391.068 265.351C390.081 266.503 389.093 267.655 388.105 268.807H387.118L385.884 270.288L384.649 271.77H383.662L382.18 273.745H381.193L380.757 274.399L380.205 275.226H379.218L378.724 275.967L378.23 276.708H377.242C377.16 276.872 377.078 277.037 376.996 277.201C376.913 277.366 376.831 277.53 376.749 277.695L376.008 277.942L375.267 278.189V278.683H374.28L374.137 278.969L374.033 279.176C373.951 279.341 373.868 279.505 373.786 279.67H372.799L372.673 279.921L372.552 280.164C372.469 280.328 372.387 280.493 372.305 280.658H371.317C371.153 280.987 370.988 281.316 370.823 281.645C370.165 281.81 369.507 281.975 368.848 282.139C368.755 282.326 368.661 282.513 368.568 282.7L368.355 283.127C367.696 283.291 367.038 283.456 366.379 283.62C366.297 283.785 366.215 283.95 366.133 284.114L365.993 284.393L365.886 284.608H364.898V285.102H363.911V285.595H362.923V286.089H361.936V286.583H360.948V287.077H359.96V287.571H358.973V288.064H357.985V288.558H356.998V289.052L355.516 289.546L354.035 290.039V290.533H352.554V291.027H351.566V291.521H350.085V292.014H349.097V292.508H347.616V293.002H346.629V293.496C345.641 293.66 344.653 293.825 343.666 293.99V294.483H342.185V294.977H340.703V295.471H339.222V295.965H337.741V296.458C336.424 296.623 335.107 296.788 333.79 296.952V297.446H331.815V297.94H329.84V298.434H327.865V298.927H325.396V299.421H322.434V299.915H318.977V300.409H315.521V300.902H310.089V301.396H302.189C300.948 301.396 299.676 301.414 298.396 301.431H298.396C293.044 301.504 287.54 301.58 283.426 300.409L279.978 300.162L276.513 299.915V299.421H273.55V298.927H271.081V298.434H269.106V297.94H266.637V297.446H264.662V296.952L262.925 296.704L261.206 296.458V295.965H259.725V295.471L257.262 294.978L254.787 294.483V293.99H253.799V293.496L251.483 292.981L249.355 292.508V292.014C248.532 291.85 247.71 291.685 246.886 291.521V291.027L245.931 290.788L244.911 290.533V290.039H243.43V289.546C242.442 289.216 241.455 288.887 240.467 288.558V288.064C239.809 287.9 239.151 287.735 238.492 287.571C238.328 287.241 238.163 286.912 237.999 286.583H237.011V286.089H236.023V285.595H235.036V285.102H234.048V284.608H233.061L232.825 284.136C232.739 283.964 232.653 283.792 232.567 283.62C231.909 283.456 231.25 283.291 230.592 283.127C230.51 282.962 230.427 282.797 230.345 282.633C230.263 282.468 230.18 282.304 230.098 282.139L229.074 281.883L228.123 281.645C228.047 281.492 227.97 281.34 227.894 281.187L227.876 281.151C227.794 280.987 227.712 280.822 227.629 280.658H226.642C226.477 280.328 226.312 280 226.148 279.67H225.16C224.996 279.341 224.831 279.012 224.667 278.683H223.679C223.597 278.518 223.515 278.353 223.432 278.189C223.35 278.024 223.268 277.86 223.185 277.695H222.198L221.704 276.954L221.21 276.214H220.223C220.141 276.049 220.058 275.885 219.976 275.72L219.898 275.565C219.842 275.452 219.785 275.339 219.729 275.226H218.741C218.659 275.062 218.577 274.897 218.495 274.732C218.412 274.568 218.33 274.403 218.248 274.239C217.754 274.074 217.26 273.909 216.766 273.745L216.28 273.015L215.779 272.264H214.791L213.31 270.288H212.322C211.727 269.573 211.13 268.858 210.534 268.143C210.307 267.871 210.08 267.598 209.853 267.326H208.866C207.878 266.174 206.891 265.021 205.903 263.869H204.916C204.87 263.778 204.825 263.688 204.779 263.597L204.669 263.376C204.587 263.211 204.504 263.047 204.422 262.882C204.193 262.666 203.935 262.408 203.656 262.129C202.445 260.92 200.832 259.311 199.484 258.932C199.32 259.425 199.155 259.919 198.99 260.413H198.497V261.401L198.046 261.626C197.867 261.715 197.688 261.805 197.509 261.894V262.882C197.344 262.964 197.18 263.046 197.015 263.129C196.913 263.18 196.81 263.232 196.707 263.283L196.522 263.376V264.363L196.068 264.666L195.511 265.037L195.04 265.351V266.338L193.065 267.82V268.807L189.809 271.813L186.646 274.732L184.671 277.201H183.684L182.202 279.176H181.215L180.689 279.965L180.227 280.658H179.24C179.186 280.765 179.132 280.872 179.079 280.979L178.993 281.151C178.91 281.316 178.828 281.481 178.746 281.645H177.758C177.675 281.812 177.592 281.978 177.509 282.144L177.264 282.633C176.771 282.797 176.277 282.962 175.783 283.127V283.62L174.796 283.867L173.808 284.114C173.644 284.443 173.479 284.772 173.314 285.102C172.327 285.431 171.339 285.76 170.352 286.089C170.187 286.419 170.022 286.747 169.858 287.077L169.007 287.289L167.883 287.571V288.064C167.225 288.229 166.566 288.394 165.908 288.558V289.052H164.426V289.546L163.316 289.823L162.451 290.039V290.533C161.943 290.618 161.436 290.702 160.928 290.787L159.489 291.027V291.521H158.007V292.014H156.526V292.508H155.045V293.002L153.064 293.25L151.095 293.496V293.99L148.621 294.237L146.157 294.483V294.977H142.7C139.088 296.014 134.212 295.992 129.419 295.971H129.418C128.741 295.968 128.064 295.965 127.393 295.965H93.8168H0V45.1281H93.8168L111.027 45.3739L128.381 45.6218V46.1156H132.331V46.6094H135.294V47.1031H137.763V47.5969H140.232V48.0907L142.202 48.3369L144.182 48.5845V49.0782H145.663V49.572H147.144V50.0658H148.626V50.5596L150.111 50.8071L151.588 51.0533V51.5471L152.576 51.794L153.563 52.0409V52.5346H155.045V53.0284L156.526 53.5222L158.007 54.016V54.5097H158.995V55.0035C159.653 55.1679 160.312 55.3329 160.97 55.4973C161.052 55.662 161.135 55.8265 161.217 55.9911C161.299 56.1556 161.382 56.3202 161.464 56.4848C161.793 56.567 162.122 56.6494 162.451 56.7317C162.781 56.8141 163.11 56.8964 163.439 56.9786L163.564 57.2297C163.687 57.4752 163.81 57.7205 163.933 57.9662H164.92V58.4599H165.908C166.237 58.9537 166.566 59.4475 166.895 59.9412H167.883L168.378 60.6838L168.87 61.4226H169.858C170.388 62.085 170.918 62.7475 171.448 63.4097L171.833 63.8914H172.821L176.277 67.8416C177.015 68.4973 177.753 69.1532 178.49 69.8091C179.234 70.4701 179.977 71.1311 180.721 71.7918V72.7793L181.083 73.0694C181.785 73.631 182.488 74.1929 183.19 74.7544V75.742C183.519 75.9064 183.848 76.0713 184.177 76.2357V77.2233L184.918 77.7171L185.659 78.2108V79.1984C185.988 79.3628 186.317 79.5277 186.646 79.6922C186.811 80.3504 186.975 81.009 187.14 81.6672C187.305 81.7495 187.469 81.8318 187.634 81.9141C187.798 81.9965 187.963 82.0788 188.127 82.161L188.375 83.1511L188.621 84.1361H189.115L189.609 85.6174L190.103 87.0987H190.596L190.843 88.3332C190.926 88.7446 191.008 89.1561 191.09 89.5676H191.584C191.851 90.0935 191.984 90.6843 192.115 91.2674C192.303 92.1061 192.488 92.9285 193.065 93.5178V92.5303L195.04 91.0489V90.0614L197.015 88.5801V87.5925L197.421 87.2678C197.74 87.0129 198.058 86.758 198.377 86.5031C198.746 86.2079 199.115 85.9126 199.484 85.6174V84.6299L200.966 83.3954L202.447 82.161L205.41 78.9515L208.372 75.742L210.347 74.2607L210.415 74.1256C210.474 74.006 210.534 73.8864 210.594 73.7669C210.676 73.6023 210.759 73.4378 210.841 73.2731H211.829C212.16 72.8752 212.492 72.4772 212.823 72.0793L213.497 71.2713L214.297 70.3105H215.285L216.766 68.3354H217.754L219.235 66.3603H220.223L220.716 65.6196L221.21 64.879H222.198V64.3852C222.692 64.2208 223.185 64.0558 223.679 63.8914C223.761 63.7268 223.844 63.5622 223.926 63.3977C224.008 63.2331 224.091 63.0686 224.173 62.9039H225.16C225.325 62.657 225.49 62.4101 225.654 62.1632C225.819 61.9163 225.983 61.6694 226.148 61.4226H227.136C227.3 61.0932 227.465 60.7644 227.629 60.435C227.958 60.3528 228.288 60.2705 228.617 60.1881C228.946 60.1058 229.275 60.0235 229.604 59.9412V59.4475L230.345 59.2006L231.086 58.9537C231.125 58.8744 231.165 58.7951 231.205 58.7159L231.333 58.4593C231.415 58.2949 231.497 58.1306 231.579 57.9662H232.567V57.4724H233.555C233.637 57.3077 233.719 57.1432 233.801 56.9786C233.884 56.8141 233.966 56.6495 234.048 56.4848C234.707 56.3204 235.365 56.1555 236.023 55.9911C236.106 55.8264 236.188 55.6618 236.27 55.4973L236.273 55.4922C236.354 55.3294 236.436 55.1665 236.517 55.0035L237.999 54.5097L239.48 54.016V53.5222C239.976 53.3567 240.472 53.1913 240.969 53.0259C241.46 52.8622 241.951 52.6985 242.442 52.5346V52.0409L243.542 51.821L243.574 51.8145C244.02 51.7253 244.466 51.6361 244.911 51.5471V51.0533H245.899V50.5596H247.38V50.0658H248.368V49.572H249.849V49.0782H250.837V48.5845L252.318 48.3376L253.799 48.0907V47.5969H255.281V47.1031H256.762V46.6094H258.243V46.1156H259.725V45.6218H261.7C272.611 41.7457 285.395 40.1943 300.214 40.1903C301.454 40.19 302.723 40.1726 304.002 40.1551L304.002 40.1551C309.355 40.0816 314.862 40.006 318.977 41.1779H322.927V41.6716H326.384V42.1654H329.347V42.6592H331.815V43.153H334.284V43.6467H336.753V44.1405H338.728V44.6343H340.703V45.1281H342.678V45.6218L347.81 47.0879L353.048 48.5845V49.0782H354.035V49.572H355.516V50.0658H356.504V50.5596L357.738 50.8064L358.973 51.0533V51.5471C359.462 51.7101 359.95 51.873 360.439 52.0358C360.938 52.2021 361.437 52.3683 361.936 52.5346V53.0284H362.923V53.5222H363.911V54.016H364.898V54.5097H365.886V55.0035H366.873C367.038 55.3329 367.203 55.6617 367.367 55.9911L368.848 56.4848L370.33 56.9786C370.494 57.308 370.659 57.6368 370.823 57.9662H371.811C371.852 58.0488 371.893 58.1313 371.935 58.2139L372.053 58.4497L372.055 58.4541C372.138 58.6206 372.222 58.7871 372.305 58.9537L372.339 58.9727C373.809 59.7895 375.279 60.6063 376.749 61.4226V62.4101C376.07 62.8781 376.068 62.9312 376.062 63.1011C376.057 63.2273 376.05 63.4181 375.761 63.8914H375.267V64.879C375.103 64.9612 374.938 65.0435 374.774 65.1259C374.609 65.2082 374.445 65.2905 374.28 65.3727C374.115 66.0309 373.951 66.6896 373.786 67.3478L373.5 67.4906C373.266 67.6076 373.033 67.7247 372.799 67.8416C372.634 68.4998 372.469 69.1585 372.305 69.8167C372.14 69.8989 371.976 69.9812 371.811 70.0636C371.646 70.1459 371.482 70.2283 371.317 70.3105L371.07 71.3006L370.823 72.2856C370.659 72.3678 370.494 72.4501 370.33 72.5324C370.165 72.6148 370.001 72.6971 369.836 72.7793C369.671 73.4375 369.507 74.0962 369.342 74.7544C369.013 74.9189 368.684 75.0838 368.355 75.2482L368.134 76.1299L367.861 77.2233L367.707 77.3001L367.367 77.4702C367.202 77.5525 367.038 77.6348 366.873 77.7171L366.626 78.7046L366.379 79.6922C366.215 79.7744 366.05 79.8567 365.886 79.939L365.552 80.1059L365.392 80.1859L365.145 81.1735L364.898 82.161C364.665 82.2774 364.432 82.394 364.199 82.5106C364.103 82.5587 364.007 82.6067 363.911 82.6548L363.664 83.6423L363.417 84.6299H362.923C362.759 85.1237 362.594 85.6174 362.429 86.1112L362.074 86.289C361.863 86.3943 361.653 86.4998 361.442 86.605L361.194 87.5951L360.948 88.5801H360.454L360.291 89.0702L360.201 89.3405C360.121 89.5808 360.04 89.8211 359.96 90.0614C359.795 90.144 359.63 90.2268 359.464 90.3095C359.3 90.3914 359.137 90.4734 358.973 90.5552L358.727 91.5401L358.479 92.5303H357.985L357.738 93.2709L357.492 94.0116C357.162 94.176 356.833 94.3409 356.504 94.5053C356.34 95.1635 356.175 95.8222 356.01 96.4804C355.681 96.6449 355.352 96.8098 355.023 96.9742V97.9617C354.693 98.1262 354.365 98.2911 354.035 98.4555L353.788 99.4456L353.541 100.431C353.4 100.501 353.258 100.572 353.117 100.643L352.874 100.764L352.554 100.924V101.912C352.389 101.994 352.225 102.076 352.06 102.159L351.85 102.264C351.755 102.311 351.661 102.359 351.566 102.406C351.449 102.873 351.332 103.342 351.215 103.809L351.073 104.381C350.91 104.462 350.748 104.543 350.586 104.624C350.419 104.708 350.252 104.791 350.085 104.875C349.999 105.134 349.912 105.394 349.825 105.654L349.786 105.773L349.591 106.356C349.222 106.157 349.049 105.911 348.903 105.703C348.808 105.568 348.724 105.448 348.604 105.368H347.616C347.534 105.204 347.452 105.039 347.369 104.875C347.287 104.71 347.205 104.545 347.122 104.381H346.135L346.001 104.113L345.888 103.887C345.806 103.722 345.723 103.558 345.641 103.393H344.653C344.489 103.064 344.324 102.735 344.16 102.406H343.172C343.09 102.241 343.008 102.076 342.925 101.912C342.843 101.747 342.761 101.583 342.678 101.418H341.691V100.924H340.703V100.431H339.716V99.9368H338.728V99.4431H337.741C337.576 99.1137 337.411 98.7849 337.247 98.4555H335.766V97.9617H334.778V97.468L333.79 97.2211L332.803 96.9742V96.4804L330.334 95.9867V95.4929L329.12 95.2906C328.537 95.1934 327.954 95.0962 327.371 94.9991V94.5053H325.89V94.0116H324.409V93.5178H322.927V93.024H320.952V92.5303L318.977 92.2834L317.002 92.0365V91.5427H314.533V91.0489H311.571V90.5552H307.621V90.0614C305.207 89.3844 295.067 90.056 293.301 90.5552L288.597 91.0504L283.919 91.5427L269.6 95.9867V96.4804L268.119 96.9742L266.637 97.468V97.9617H265.65V98.4555H264.662V98.9493H263.675V99.4431H262.687V99.9368H261.7V100.431H260.712V100.924H259.725C259.56 101.254 259.395 101.583 259.231 101.912C258.573 102.076 257.914 102.241 257.256 102.406C257.173 102.57 257.091 102.735 257.009 102.899C256.926 103.064 256.844 103.229 256.762 103.393H255.774V103.887C255.531 103.968 255.287 104.049 255.043 104.131C254.793 104.214 254.543 104.298 254.293 104.381C254.129 104.71 253.964 105.039 253.799 105.368H252.812L252.318 106.109L251.824 106.85H250.837C250.507 107.343 250.178 107.837 249.849 108.331H248.862L247.38 110.306H246.393L244.209 112.732L241.949 115.244C241.264 115.852 240.58 116.46 239.896 117.069L239.727 117.219L239.659 117.279C238.941 117.917 238.223 118.556 237.505 119.194V120.182L235.53 121.663L235.392 122.075L235.292 122.374C235.207 122.631 235.121 122.888 235.036 123.144C234.707 123.309 234.378 123.474 234.048 123.638V124.625C233.881 124.709 233.713 124.793 233.545 124.877L233.386 124.957L233.061 125.119V126.107C232.893 126.19 232.726 126.274 232.559 126.358L232.541 126.367L232.073 126.601L231.841 127.298L231.579 128.082H231.086C230.921 128.74 230.756 129.399 230.592 130.057C230.427 130.139 230.263 130.222 230.098 130.304C229.934 130.386 229.769 130.469 229.604 130.551V131.538H229.111V132.526H228.617V133.513H228.123V134.501H227.629V135.488H227.136V136.476H226.642L226.155 137.935L225.654 139.439H225.16V140.92H224.667V141.908H224.173C224.091 142.401 224.008 142.895 223.926 143.389C223.844 143.883 223.761 144.376 223.679 144.87H223.185V146.351H222.692V147.833H222.198V149.314H221.704V151.289C218.91 159.645 217.853 175.459 220.716 184.866C220.798 185.597 220.879 186.327 220.96 187.058C221.044 187.809 221.127 188.559 221.21 189.31L223.467 196.08L225.654 202.642H226.148C226.477 203.629 226.806 204.617 227.136 205.604H227.629V206.592H228.123L228.617 208.073L229.111 209.554C229.206 209.602 229.302 209.65 229.398 209.698L229.604 209.801C229.769 209.884 229.934 209.966 230.098 210.048C230.263 210.706 230.428 211.365 230.592 212.023C230.691 212.072 230.789 212.122 230.888 212.171L231.088 212.271L231.107 212.281C231.264 212.36 231.422 212.438 231.579 212.517V213.505H232.073V214.492C232.238 214.574 232.402 214.657 232.567 214.739C232.732 214.821 232.896 214.904 233.061 214.986V215.973L233.519 216.203C233.695 216.291 233.872 216.379 234.048 216.467V217.455C234.542 217.784 235.036 218.113 235.53 218.442V219.43C236.023 219.759 236.517 220.088 237.011 220.417V221.405L239.48 223.38V224.368C240.215 225.021 240.951 225.675 241.687 226.329C242.175 226.763 242.664 227.198 243.152 227.632L243.924 228.318L245.405 230.293H246.393C247.051 231.115 247.71 231.939 248.368 232.762H249.355C249.685 233.256 250.014 233.749 250.343 234.243H251.33C251.413 234.408 251.495 234.572 251.577 234.737C251.66 234.901 251.742 235.066 251.824 235.231H252.812L253.3 235.964L253.799 236.712H254.787C254.87 236.878 254.953 237.044 255.036 237.211C255.118 237.374 255.199 237.536 255.281 237.699C255.939 237.864 256.597 238.029 257.256 238.193C257.338 238.358 257.42 238.522 257.503 238.687C257.585 238.852 257.667 239.016 257.749 239.181C258.737 239.51 259.725 239.839 260.712 240.168L260.859 240.462C260.974 240.693 261.09 240.924 261.206 241.156L261.847 241.316L263.181 241.65V242.143C263.839 242.308 264.498 242.473 265.156 242.637V243.131H266.637V243.625L267.404 243.816L268.612 244.119V244.612L271.081 245.106V245.6L272.563 245.847L274.044 246.094V246.587H275.525V247.081H277.007V247.575H278.982V248.069H280.957V248.562H282.932V249.056H285.895V249.55H288.857V250.044H293.301V250.538C295.768 251.227 306.293 250.557 308.114 250.044C309.764 249.879 311.415 249.714 313.065 249.549C314.707 249.385 316.348 249.22 317.99 249.056V248.562H319.965V248.069H321.446V247.575H323.421V247.081C324.409 246.917 325.396 246.752 326.384 246.587V246.094H327.371V245.6H328.853V245.106H329.84V244.612L330.74 244.432L332.309 244.119V243.625C333.297 243.295 334.284 242.967 335.272 242.637V242.143H336.259V241.65H337.247V241.156H338.234V240.662H339.222V240.168H340.21C340.292 240.004 340.374 239.839 340.456 239.675L340.556 239.475L340.703 239.181L341.363 239.016L342.678 238.687C342.843 238.358 343.008 238.029 343.172 237.699H344.16V237.206L344.9 236.959L345.641 236.712C345.723 236.547 345.806 236.383 345.888 236.218C345.97 236.054 346.053 235.889 346.135 235.724H347.122L347.67 234.903L348.11 234.243H349.097C349.18 234.078 349.262 233.914 349.344 233.749C349.427 233.585 349.509 233.42 349.591 233.256L350.031 233.109C350.378 232.993 350.725 232.877 351.073 232.762L352.554 230.787H353.541C354.365 229.799 355.187 228.812 356.01 227.824H356.998L358.479 225.849C358.808 225.684 359.137 225.52 359.467 225.355V224.368L360.833 223.229L362.429 221.899V220.911L363.17 220.417L363.911 219.924L364.158 219.183L364.404 218.442C364.569 218.36 364.734 218.278 364.898 218.195C365.063 218.113 365.227 218.031 365.392 217.949C366.673 215.642 367.955 213.336 369.236 211.029C370.424 208.892 371.611 206.754 372.799 204.617V203.135H373.292V202.148H373.786V200.667H374.28V199.679H374.774L377.489 190.544L380.205 181.409V178.941H380.699V176.965H381.193V174.99H381.686L381.933 172.772L382.18 170.546H382.674L382.911 169.009L383.404 165.804L383.662 164.127H384.155V161.658H384.649V159.683H385.143V157.708H385.637V155.239H386.13L386.377 153.021L386.624 150.795H387.118C387.2 150.056 387.282 149.317 387.364 148.577C387.447 147.835 387.529 147.093 387.612 146.351H388.105L388.599 143.389L389.093 140.426H389.587L389.834 138.698L390.081 136.97H390.574V135.488H391.068V134.007H391.562L393.043 127.588H393.537V126.601H394.031C394.113 126.107 394.195 125.613 394.278 125.119C394.36 124.625 394.442 124.132 394.525 123.638H395.018V122.65H395.512V121.169H396.006C396.17 120.511 396.335 119.852 396.5 119.194H396.993V117.713H397.487L397.981 116.231L398.475 114.75H398.969V113.762H399.462V112.775H399.956V111.787H400.45V110.8H400.944V109.812H401.437V108.825H401.931V107.837C402.26 107.673 402.589 107.508 402.919 107.343C403.083 106.85 403.248 106.356 403.412 105.862C403.577 105.368 403.742 104.875 403.906 104.381H404.4L404.647 103.64L404.894 102.899C405.223 102.735 405.552 102.57 405.881 102.406C406.046 101.748 406.211 101.089 406.375 100.431H406.869C407.033 99.9368 407.198 99.4431 407.363 98.9493C407.467 98.8971 407.572 98.8448 407.676 98.7926L407.856 98.7024C408.021 98.6201 408.186 98.5377 408.35 98.4555V97.468L409.091 96.9742L409.832 96.4804V95.4929C410.161 95.3285 410.49 95.1635 410.819 94.9991V94.0116L412.794 92.5303V91.5427L414.769 90.0614V89.0738L415.815 88.2373L417.238 87.0987V86.1112L421.435 82.161L425.632 78.2108L426.222 77.5786C428.33 75.3208 430.438 73.0623 432.545 70.8042H433.533L435.508 68.3354H436.495L437.977 66.3603H438.964L440.445 64.3852H441.433C441.597 64.0558 441.762 63.727 441.927 63.3977H442.914C443.147 63.0483 443.38 62.699 443.613 62.3497L443.902 61.9163H444.889L445.056 61.5825C445.165 61.3646 445.274 61.1468 445.383 60.9288L446.127 60.681L446.864 60.435V59.9412H447.852C448.016 59.6119 448.181 59.283 448.346 58.9537L449.328 58.7081L450.321 58.4599C450.403 58.2952 450.485 58.1307 450.568 57.9661C450.65 57.8016 450.732 57.6371 450.815 57.4724C451.802 57.143 452.79 56.8142 453.777 56.4848C453.942 56.1555 454.107 55.8266 454.271 55.4973H455.259V55.0035H456.246V54.5097H457.234V54.016H458.221V53.5222H459.209V53.0284L460.69 52.5346L462.171 52.0409V51.5471H463.653V51.0533H464.64V50.5596H466.122V50.0658L467.109 49.8189L468.097 49.572V49.0782L469.591 48.8291L471.059 48.5845V48.0907H472.047V47.5969C473.528 47.2676 475.01 46.9387 476.491 46.6094V46.1156H478.466V45.6218H479.947V45.1281H481.922C492.46 41.4045 505.196 40.1928 519.449 40.1903H533.768V40.6841H538.706V41.1779H542.656V41.6716H546.113V42.1654H549.075V42.6592H551.544V43.153H554.013V43.6467H555.988V44.1405H558.457L568.826 47.5969V48.0907H569.814V48.5845H571.295V49.0782H572.283V49.572H573.764V50.0658C574.752 50.3951 575.739 50.724 576.727 51.0533V51.5471H577.714V52.0409H579.196V52.5346C579.854 52.6991 580.513 52.864 581.171 53.0284V53.5222L582.158 53.7691L583.146 54.016L583.328 54.381L583.393 54.5097C583.475 54.6743 583.557 54.8388 583.64 55.0035H584.627V55.4973H585.615V55.9911H586.602V56.4848H587.59C587.754 56.8142 587.919 57.143 588.083 57.4724C588.742 57.6368 589.4 57.8017 590.059 57.9662C590.141 58.1306 590.223 58.2949 590.305 58.4593C590.388 58.624 590.47 58.7888 590.552 58.9537L591.54 59.2006L592.527 59.4475C592.61 59.6121 592.692 59.7767 592.774 59.9412C592.857 60.1058 592.939 60.2703 593.021 60.435H594.009L594.136 60.6903L594.256 60.9288C594.338 61.0933 594.42 61.2579 594.503 61.4226C594.832 61.5872 595.161 61.7518 595.49 61.9163L595.51 61.9262C595.833 62.0875 596.155 62.2487 596.478 62.4101L582.928 84.3366L569.32 106.356C567.839 105.533 566.357 104.71 564.876 103.887C564.797 103.729 564.718 103.571 564.639 103.413C564.553 103.242 564.468 103.071 564.382 102.899H563.395C563.23 102.57 563.066 102.241 562.901 101.912L561.851 101.562L561.414 101.416C560.922 101.252 560.43 101.088 559.938 100.924C559.858 100.763 559.777 100.602 559.697 100.441L559.692 100.431C559.609 100.266 559.527 100.102 559.445 99.9368C558.786 99.7724 558.128 99.6075 557.47 99.4431V98.9493H556.482V98.4555L555.001 97.9617L553.519 97.468V96.9742H552.038V96.4804H551.051V95.9867L536.731 91.5427H534.262V91.0489H530.806V90.5552H526.856V90.0614C524.442 89.3839 514.304 90.0564 512.536 90.5552H508.586V91.0489H506.117V91.5427H503.648V92.0365H501.673V92.5303H499.698V93.024H497.723V93.5178H496.242V94.0116H494.76V94.5053H493.773V94.9991C492.785 95.1635 491.798 95.3285 490.81 95.4929V95.9867L489.833 96.2309L488.835 96.4804V96.9742H487.354V97.468L485.873 97.9617L484.391 98.4555V98.9493L483.404 99.1962L482.416 99.4431C482.252 99.7724 482.087 100.101 481.922 100.431L480.429 100.928L478.96 101.418V101.912L478.219 102.159L477.478 102.406C477.396 102.57 477.314 102.735 477.232 102.899C477.149 103.064 477.067 103.229 476.985 103.393H475.997V103.887C475.503 104.051 475.01 104.216 474.516 104.381C474.351 104.71 474.186 105.039 474.022 105.368H473.034C472.952 105.533 472.87 105.698 472.788 105.862L472.783 105.872C472.702 106.033 472.621 106.195 472.541 106.356C472.202 106.469 471.863 106.582 471.523 106.695L471.059 106.85L469.578 108.825H468.59L467.364 110.296L466.122 111.787H465.134C464.147 112.939 463.159 114.092 462.171 115.244L461.446 115.728L460.69 116.231V117.219C459.703 118.042 458.715 118.865 457.727 119.688L457.481 120.428L457.234 121.169L456.493 121.663L455.752 122.157V123.144C455.589 123.226 455.425 123.308 455.261 123.39C455.096 123.473 454.93 123.555 454.765 123.638V124.625C454.599 124.708 454.434 124.791 454.268 124.874C454.105 124.956 453.941 125.037 453.777 125.119V126.107C453.448 126.271 453.119 126.436 452.79 126.601V127.588C452.625 127.67 452.461 127.753 452.296 127.835C452.131 127.917 451.967 128 451.802 128.082L451.546 129.106L451.308 130.057L451.023 130.199L450.795 130.314C450.637 130.393 450.479 130.472 450.321 130.551L450.164 131.18L449.827 132.526H449.333V133.513H448.84C448.51 134.501 448.181 135.488 447.852 136.476H447.358V137.957H446.864L446.618 138.945L446.371 139.932H445.877C445.712 140.92 445.548 141.908 445.383 142.895H444.889V144.376H444.396V145.858H443.902V147.339H443.408V149.314H442.914V151.289H442.421V153.758H441.927V156.227H441.433V159.683H440.939V165.115H440.445C439.808 167.404 440.496 173.411 440.939 174.99V180.422H441.433V183.878H441.927V186.841H442.421V189.31H442.914V191.285H443.408V193.26H443.902V194.741H444.396V196.716H444.889V198.198H445.383V199.185H445.877C446.041 200.173 446.206 201.16 446.371 202.148H446.864V203.135H447.358V204.617H447.852C448.181 205.604 448.51 206.592 448.84 207.579H449.333V208.567H449.827L450.321 210.048L450.815 211.53C451.144 211.694 451.473 211.859 451.802 212.023L452.048 213.006L452.296 213.998H452.79C452.872 214.245 452.954 214.492 453.037 214.739C453.119 214.986 453.201 215.233 453.284 215.48C453.448 215.562 453.613 215.644 453.777 215.727C453.942 215.809 454.106 215.891 454.271 215.973V216.961C454.6 217.125 454.929 217.29 455.259 217.455V218.442L455.999 218.936L456.74 219.43V220.417L457.481 220.911L458.221 221.405V222.393C459.703 223.709 461.184 225.026 462.665 226.343C462.83 226.836 462.995 227.33 463.159 227.824H464.147L466.334 230.255L468.59 232.762H469.578L471.059 234.737H472.047C472.212 234.984 472.376 235.231 472.541 235.477C472.705 235.724 472.87 235.971 473.034 236.218H474.022C474.186 236.548 474.351 236.876 474.516 237.206L475.256 237.453L475.997 237.699V238.193H476.985C477.058 238.339 477.131 238.485 477.204 238.631L477.241 238.707L477.478 239.181H478.466C478.548 239.345 478.63 239.51 478.713 239.675L478.837 239.923L478.96 240.168C479.618 240.333 480.277 240.498 480.935 240.662C481.015 240.824 481.096 240.985 481.177 241.146C481.261 241.314 481.345 241.482 481.429 241.65L482.91 242.143L484.391 242.637V243.131H485.379V243.625H486.366V244.119C487.354 244.448 488.341 244.777 489.329 245.106V245.6H490.81V246.094H491.798V246.587L493.279 246.834L494.76 247.081V247.575H496.242V248.069H497.723V248.562H499.204V249.056H501.179C509.084 251.7 522.999 252.712 531.793 250.044H534.262L539.511 248.544L544.632 247.081V246.587H545.619V246.094H547.1V245.6L548.604 245.099L550.063 244.612V244.119H551.051V243.625H552.038V243.131C553.026 242.802 554.013 242.473 555.001 242.143C555.081 241.982 555.162 241.82 555.243 241.659C555.327 241.491 555.411 241.324 555.495 241.156L556.482 240.909L557.47 240.662C557.552 240.497 557.634 240.333 557.716 240.168L557.862 239.878L557.963 239.675H558.951V239.181C559.445 239.016 559.938 238.851 560.432 238.687C560.597 238.358 560.762 238.029 560.926 237.699H561.914C562.078 237.37 562.243 237.041 562.407 236.712L562.844 236.566L563.224 236.44L563.889 236.218L564.411 235.565L564.543 235.4C564.983 234.85 565.424 234.3 565.864 233.749H566.851L569.073 231.28L571.295 228.812C571.707 228.482 572.118 228.153 572.53 227.824C572.941 227.495 573.353 227.166 573.764 226.836V225.849C574.176 225.52 574.587 225.191 574.999 224.861L575.673 224.322L576.233 223.874L576.48 223.133L576.727 222.393C576.891 222.31 577.056 222.228 577.221 222.146C577.385 222.063 577.55 221.981 577.714 221.899V220.911C578.044 220.747 578.372 220.582 578.702 220.417L578.949 219.677L579.196 218.936H579.689V217.949C580.019 217.784 580.348 217.619 580.677 217.455L580.947 216.373L581.171 215.48C581.5 215.315 581.829 215.15 582.158 214.986V213.998H582.652V213.011H583.146V212.023H583.64V211.036H584.133V210.048H584.627L586.108 205.604C586.349 205.055 586.61 204.511 586.875 203.961L586.876 203.957C587.825 201.982 588.815 199.918 589.071 197.21ZM54.315 91.5427V146.351H102.211C103.558 146.351 104.964 146.367 106.399 146.383C113.994 146.469 122.424 146.564 127.393 144.376V143.883H128.381V143.389L129.253 143.171L130.356 142.895C130.52 142.566 130.685 142.237 130.85 141.908H131.837C131.916 141.75 131.995 141.593 132.073 141.435L132.083 141.416C132.166 141.251 132.248 141.086 132.331 140.92H133.319L136.775 136.97C137.269 136.64 137.763 136.312 138.256 135.982V134.995L138.597 134.767C138.978 134.514 139.358 134.261 139.738 134.007V133.02C140.067 132.855 140.396 132.69 140.725 132.526L142.183 128.152L143.688 123.638C144.622 120.385 143.033 110.745 142.207 108.825H141.713V107.837H141.219V106.356C140.96 106.227 140.701 106.097 140.443 105.968C140.372 105.932 140.302 105.897 140.232 105.862C140.067 105.204 139.902 104.545 139.738 103.887L139.003 103.397L138.256 102.899V101.912H137.763L136.281 99.9368H135.294C134.881 99.4415 134.468 98.9461 134.055 98.4507C133.645 97.9585 133.235 97.4664 132.825 96.9742H131.837C131.755 96.8095 131.673 96.645 131.59 96.4804C131.508 96.3159 131.426 96.1513 131.344 95.9867L123.443 92.5303L120.234 92.2834L117.024 92.0365C113.877 91.1578 109.294 91.3072 105.046 91.4458C103.539 91.4949 102.074 91.5427 100.73 91.5427H54.315ZM54.315 192.766V249.056H109.618C111.249 249.056 113.108 249.124 115.053 249.194H115.054C120.313 249.385 126.195 249.598 129.862 248.562C132.166 248.398 134.471 248.233 136.775 248.069V247.575H138.256V247.081H139.738V246.587H141.219V246.094H142.207V245.6H143.194C143.277 245.434 143.36 245.269 143.442 245.104C143.524 244.94 143.606 244.776 143.688 244.612C144.346 244.448 145.005 244.283 145.663 244.119L146.157 243.378L146.651 242.637H147.638C147.685 242.543 147.732 242.449 147.78 242.354L147.885 242.143C147.967 241.979 148.05 241.814 148.132 241.65C149.119 240.827 150.107 240.003 151.095 239.181V238.193L153.07 236.712V235.724C153.169 235.675 153.269 235.625 153.369 235.575L153.563 235.477C153.728 235.395 153.892 235.313 154.057 235.231L157.514 227.33V224.861H158.007V215.973C154.954 205.819 148.923 198.23 139.738 194.247C135.182 192.272 126.087 192.488 118.404 192.67C116.319 192.719 114.338 192.766 112.58 192.766H54.315ZM1272.77 187.35C1265.38 175.757 1254.78 167.873 1241.01 163.677V162.935C1251.1 157.763 1258.97 150.308 1264.64 140.55C1270.31 130.811 1273.14 119.531 1273.14 106.709C1273.14 96.1113 1271.29 86.6654 1267.6 78.41C1263.9 70.1546 1258.74 63.1873 1252.1 57.5081C1245.45 51.8288 1237.51 47.5157 1228.27 44.5688C1219.04 41.6023 1208.89 40.1191 1197.8 40.1191H1118.77C1110.64 40.1191 1106.57 44.198 1106.57 52.3363V231.613L1041 50.1114C1038.82 43.4564 1034.26 40.1191 1027.36 40.1191H1009.64C1002.74 40.1191 998.181 43.4564 995.98 50.1114L916.711 269.494H828.209V52.3363C828.209 44.198 824.138 40.1191 816.014 40.1191H804.209C796.085 40.1191 792.014 44.198 792.014 52.3363V289.108C792.014 297.246 796.085 301.325 804.209 301.325H920.276H932.822H933.076C938.18 301.325 941.686 299.705 943.576 296.485C944.647 295.06 945.504 293.382 946.108 291.333L968.998 226.226H1067.22L1090.48 291.333C1092.7 297.988 1097.24 301.325 1104.14 301.325H1116.7C1117.15 301.325 1117.58 301.305 1118.01 301.266C1118.14 301.266 1118.26 301.281 1118.38 301.296C1118.5 301.31 1118.62 301.325 1118.75 301.325H1199.61C1211.19 301.325 1222.08 299.783 1232.3 296.7C1242.51 293.616 1251.43 288.932 1259.07 282.648C1266.71 276.364 1272.73 268.596 1277.17 259.345C1281.59 250.095 1283.81 239.302 1283.81 226.968C1283.85 212.136 1280.15 198.962 1272.77 187.35ZM978.622 195.859L1007.79 112.993C1009.01 109.538 1010.12 105.772 1011.12 101.712C1012.09 97.6531 1013.2 93.6327 1014.45 89.6904C1015.42 85.2602 1016.67 80.6934 1018.15 76.0095H1018.89C1020.12 80.6934 1021.23 85.2602 1022.22 89.6904C1023.19 93.6327 1024.25 97.6531 1025.36 101.712C1026.47 105.791 1027.64 109.538 1028.86 112.993L1057.68 195.859H978.622ZM1142.79 71.9306H1197.06C1209.63 71.9306 1219.27 75.4435 1226.05 82.4694C1232.81 89.4953 1236.2 98.8045 1236.2 110.397C1236.2 121.99 1232.75 131.475 1225.86 138.891C1218.96 146.288 1209.61 149.996 1197.78 149.996H1142.77V71.9306H1142.79ZM1234.54 257.277C1226.54 265.415 1215.53 269.494 1201.48 269.494H1142.77V180.324H1201.48C1215.28 180.324 1226.23 184.461 1234.35 192.717C1242.47 200.972 1246.54 211.765 1246.54 225.094C1246.54 238.404 1242.55 249.138 1234.54 257.277Z" fill="white"/>
</svg>
